<?xml version="1.0" encoding="UTF-8"?>
<svg id="Layer_1" xmlns="http://www.w3.org/2000/svg" version="1.1" viewBox="0 0 6037.32 4457.77">
  <!-- Generator: Adobe Illustrator 30.1.0, SVG Export Plug-In . SVG Version: 2.1.1 Build 136)  -->
  <defs>
    <style>
      .st0 {
        stroke-width: 6px;
      }

      .st0, .st1 {
        stroke: #231f20;
      }

      .st0, .st1, .st2 {
        stroke-miterlimit: 10;
      }

      .st1 {
        fill: #fff;
      }

      .st2 {
        stroke: #000;
      }
    </style>
  </defs>
  <path class="st0" d="M5838.39,1020.61v.3c0-.07-.03-.14-.1-.19-.04-.04-.09-.06-.15-.05l.25-.06Z"/>
  <g>
    <polygon class="st0" points="5837.98 985.23 4890.59 1198.57 4889.98 1064.18 5837.37 850.84 5837.98 985.23"/>
    <path class="st0" d="M4890.19,1199.08s.1.06.16.05c0,0,.03,0,.05-.01l947.88-213.45c.11-.02.19-.13.19-.24l-.61-134.9c0-.08-.04-.15-.1-.2-.05-.05-.13-.06-.2-.05l-947.88,213.46c-.12.03-.19.13-.2.24l.61,134.9c0,.07.04.15.1.2Z"/>
  </g>
  <path class="st0" d="M4891.13,1368.7v.26s.3-.07.3-.07c-.02,0-.04.01-.05,0-.06,0-.12-.01-.16-.05-.05-.04-.07-.09-.09-.14Z"/>
  <path class="st0" d="M4891.11,1368.65s0,.04.01.05"/>
  <polygon class="st0" points="4891.12 1368.96 4891.13 1369.21 4891.13 1368.96 4891.12 1368.96"/>
  <g>
    <polygon class="st0" points="4892.11 1533.61 4891.5 1399.22 5838.89 1185.88 5839.5 1320.27 4892.11 1533.61"/>
    <path class="st0" d="M5840,1320.47l-.61-134.9c0-.07-.04-.15-.1-.2-.05-.05-.13-.06-.21-.04l-947.88,213.45c-.11.02-.19.13-.19.24l.61,134.9c0,.07.04.15.1.2.04.04.1.06.15.05.02,0,.04,0,.05-.01l947.89-213.45c.11-.02.19-.13.19-.24Z"/>
  </g>
  <g>
    <polygon class="st0" points="4892.87 1699.16 4892.26 1564.77 5839.64 1351.43 5840.25 1485.83 4892.87 1699.16"/>
    <path class="st0" d="M4891.95,1564.33c-.12.03-.19.13-.2.24l.62,134.9c0,.07.04.15.09.2.05.04.1.06.16.05.02,0,.04,0,.05-.01l947.88-213.45c.12-.03.19-.13.2-.24l-.61-134.9c0-.07-.04-.15-.1-.2s-.13-.06-.21-.04l-947.88,213.45Z"/>
  </g>
  <g>
    <polygon class="st0" points="5841.03 1656.05 4893.64 1869.39 4893.03 1735 5840.42 1521.67 5841.03 1656.05"/>
    <path class="st0" d="M4892.72,1734.56c-.11.02-.19.13-.19.25l.61,134.89c0,.08.04.15.1.2.04.04.1.06.15.05h.05s947.88-213.45,947.88-213.45c.12-.03.2-.13.2-.25l-.61-134.9c0-.07-.04-.15-.1-.2s-.13-.05-.21-.04l-947.88,213.45Z"/>
  </g>
  <g>
    <polygon class="st0" points="4893.8 1905.24 5841.19 1691.9 5841.8 1826.28 4894.41 2039.62 4893.8 1905.24"/>
    <path class="st0" d="M4894.01,2040.13s.1.06.16.05h.05s947.88-213.45,947.88-213.45c.11-.02.19-.13.19-.25l-.61-134.9c0-.07-.04-.14-.1-.19-.05-.05-.13-.06-.2-.05l-947.88,213.45c-.12.03-.2.13-.2.25l.61,134.89c0,.08.04.15.1.2Z"/>
  </g>
  <polygon class="st0" points="4395.17 1179.37 4397.33 1654.43 4653.8 1596.68 4651.91 1180.34 4843.27 1078.47 4395.17 1179.37"/>
  <polygon class="st0" points="4397.44 1679.97 4397.62 1719.01 4373.47 1685.37 4105.48 1745.71 4399.6 2155.32 4656.07 2097.57 4653.92 1622.21 4397.44 1679.97"/>
  <path class="st0" d="M2955.28,1486.77c-100.7,22.68-172.08,112.34-171.61,215.55,12.4,782.54-112.42,888.03,745.18,665.92,237.34-47.34,159.56-362.22,170.18-530.99l-237.97,53.58,1,220.64-439.09,98.88-2.24-491.94,439.09-98.88,1.12,245.75,237.96-53.58c4.61-206.71,23.36-463.81-269.22-431.75l-474.4,106.82Z"/>
  <path class="st0" d="M2185.07,1677.06c-102.86,23.17-185.82,134.26-185.3,248.14l1.22,268.85,270.53-60.92-.16-33.59,181.64,5.67c-26.52,14.49-153.11,72.02-181.21,87.37l-.15-33.89-270.54,60.92,2.16,475.35,606.36-136.54,136.4-251.79-471.15,106.1-.7-153.76,162.61-36.62c40.03-74.01,106.21-196.42,146.36-270.67l-310.05,69.82-.71-155.65,323.29-72.79,133.62-238.54-544.23,122.55Z"/>
  <polygon class="st0" points="1633.15 1801.35 1503.21 2306.14 1752.53 2250 1909.47 1739.13 1633.15 1801.35"/>
  <path class="st0" d="M1496.22,2333.29l-55.18,214.38c-42.93-140.07-157-512.2-201.58-657.66l-442.58,99.66,175.65,12.12c79.57,212.23,239.93,640.45,319.57,853.3l294.97-66.42,157.04-511.21-247.88,55.82Z"/>
  <polygon class="st0" points="151.79 2975.23 152.39 3109.51 1090.53 2898.2 1044.02 2774.25 151.79 2975.23"/>
  <polygon class="st0" points="151.02 2805.79 151.62 2940.07 1031.83 2741.8 985.32 2617.87 151.02 2805.79"/>
  <polygon class="st0" points="150.24 2636.35 150.86 2770.62 973.13 2585.41 926.61 2461.47 150.24 2636.35"/>
  <polygon class="st0" points="149.5 2471.56 150.1 2605.83 916.04 2433.31 869.52 2309.37 149.5 2471.56"/>
  <polygon class="st0" points="148.75 2307.35 149.36 2441.63 859.15 2281.75 812.64 2157.81 148.75 2307.35"/>
  <polygon class="st0" points="147.98 2138.06 148.59 2272.33 800.5 2125.49 753.98 2001.55 147.98 2138.06"/>
  <polygon class="st0" points="1633.15 1801.35 1503.21 2306.14 1752.53 2250 1909.47 1739.13 1633.15 1801.35"/>
  <g>
    <polygon class="st0" points="1752.56 2250.12 1752.63 2250.11 1909.59 1739.16 1909.66 1738.96 1633.12 1801.22 1633.05 1801.24 1503.09 2306.11 1503.04 2306.31 1752.56 2250.12"/>
    <polygon class="st0" points="1909.29 1739.3 1752.44 2249.89 1503.38 2305.97 1633.25 1801.45 1909.29 1739.3"/>
  </g>
  <path class="st0" d="M1496.22,2333.29l-55.18,214.38c-42.93-140.07-157-512.2-201.58-657.66l-442.58,99.66,175.65,12.12c79.57,212.23,239.93,640.45,319.57,853.3l294.97-66.42,157.04-511.21-247.88,55.82Z"/>
  <g>
    <path class="st0" d="M1587.09,2788.79l.07-.02,157.06-511.28.06-.21-248.09,55.87-.07.02-55.09,214.02-58.4-190.53c-50.35-164.26-112.75-367.84-143.05-466.71l-.03-.11-442.7,99.69.02.25,175.57,12.12c79.23,211.34,239.58,639.54,319.54,853.23l.04.1,295.07-66.45Z"/>
    <path class="st0" d="M1239.37,1890.15c30.31,98.91,92.69,302.4,143.02,466.6l58.53,190.95.13.42,55.27-214.74,247.6-55.76-156.95,510.93-294.79,66.38c-79.98-213.75-240.33-641.93-319.53-853.2l-.03-.08-174.88-12.07,441.64-99.45Z"/>
  </g>
  <path class="st0" d="M2609.65,2558.53h.06s136.43-251.86,136.43-251.86l.13-.24-471.27,106.12-.7-153.5,162.51-36.6h.06s.03-.06.03-.06c18-33.28,41.28-76.34,65.11-120.41,29.17-53.94,59.15-109.4,81.25-150.26l-.22-.12c-22.1,40.86-52.09,96.32-81.25,150.26-23.82,44.05-47.09,87.09-65.08,120.36l-162.55,36.61-.1.02.7,153.86v.16s471.03-106.07,471.03-106.07l-136.25,251.5-606.16,136.49-2.16-475.19h-.25s2.16,475.35,2.16,475.35v.16s606.52-136.57,606.52-136.57Z"/>
  <path class="st0" d="M2001.11,2194.05l-1.22-268.85c-.13-27.82,4.67-55.92,14.26-83.51,9.26-26.65,22.59-51.72,39.6-74.5,17.01-22.78,36.85-42.12,58.97-57.49,22.9-15.91,47.25-26.85,72.38-32.51l543.96-122.49-133.45,238.24-323.24,72.78-.1.02.71,155.75v.16s310.2-69.85,310.2-69.85l-.05-.24-309.9,69.78-.71-155.39,323.2-72.77h.05s133.64-238.6,133.64-238.6l.14-.24-544.51,122.61c-25.16,5.67-49.54,16.62-72.46,32.55-22.14,15.39-42,34.75-59.03,57.55-17.03,22.8-30.36,47.89-39.63,74.56-9.6,27.62-14.4,55.75-14.28,83.6l1.22,268.85h.25Z"/>
  <path class="st0" d="M2452.54,2105.32c-13.41,7.26-49.67,24.34-88.06,42.4-38.43,18.1-78.17,36.8-92.57,44.64l-.15-33.68v-.16l-266.13,59.93-4.53,1.15,270.54-60.92.15,33.89c28.02-15.31,153.98-72.55,180.98-87.25.08-.04.16-.08.23-.12l-.46.12Z"/>
  <path class="st0" d="M2453,2105.2l-.06-.1c-.06.03-.11.06-.17.09-.05.03-.1.06-.16.09-.02.01-.04.02-.07.04-13.41,7.26-49.67,24.34-88.06,42.4-38.43,18.1-78.17,36.8-92.57,44.64l-.15-33.68v-.16l-266.13,59.93-4.56,1.03.03.12.03.12.1-.02,270.28-60.87.15,33.95.19-.1c14.23-7.78,54.14-26.56,92.74-44.73,38.77-18.25,75.38-35.48,88.47-42.64l-.06-.11Z"/>
  <polygon class="st0" points="2452.77 2105.19 2271.36 2099.54 2271.52 2133.13 2001.12 2194.02 2005.76 2193.11 2271.54 2133.25 2271.64 2133.23 2271.48 2099.67 2452.43 2105.31 2452.61 2105.28 2453 2105.2 2452.77 2105.19"/>
  <polygon class="st0" points="2271.36 2099.41 2271.23 2099.41 2271.39 2133.03 2001.65 2193.77 2001.12 2193.89 2000.99 2193.92 2000.96 2193.93 2000.99 2194.05 2000.99 2194.06 2001.02 2194.18 2005.76 2193.11 2271.54 2133.25 2271.64 2133.23 2271.48 2099.67 2452.43 2105.31 2452.54 2105.32 2452.77 2105.32 2452.99 2105.33 2453 2105.2 2453 2105.08 2271.36 2099.41"/>
  <polygon class="st0" points="4105.48 1745.71 4399.6 2155.32 4656.07 2097.57 4653.92 1622.21 4397.44 1679.97 4397.62 1719.01 4373.47 1685.37 4105.48 1745.71"/>
  <polygon class="st0" points="4656.1 2097.69 4656.19 2097.67 4654.04 1622.21 4654.04 1622.06 4397.41 1679.85 4397.31 1679.87 4397.49 1718.62 4373.57 1685.29 4373.36 1685.44 4397.74 1719.41 4397.56 1680.07 4653.79 1622.37 4655.94 2097.47 4399.66 2155.18 4105.58 1745.64 4105.38 1745.79 4399.5 2155.4 4399.55 2155.46 4656.1 2097.69"/>
  <polygon class="st0" points="4395.17 1179.37 4397.33 1654.43 4653.8 1596.68 4651.91 1180.34 4843.27 1078.47 4395.17 1179.37"/>
  <g>
    <polygon class="st0" points="4653.82 1596.8 4653.92 1596.78 4652.03 1180.42 4843.33 1078.58 4843.24 1078.35 4395.14 1179.25 4395.05 1179.27 4397.21 1654.43 4397.21 1654.59 4653.82 1596.8"/>
    <polygon class="st0" points="4842.39 1078.79 4651.85 1180.23 4651.78 1180.27 4653.67 1596.58 4397.45 1654.27 4395.3 1179.47 4842.39 1078.79"/>
  </g>
  <path class="st0" d="M3698.9,1811.7c4.61-206.71,23.36-463.81-269.22-431.75l-474.4,106.82c-100.7,22.68-172.08,112.34-171.61,215.55,12.4,782.54-112.42,888.03,745.18,665.92,237.34-47.34,159.56-362.22,170.18-530.99l-237.97,53.58,1,220.64-439.09,98.88-2.24-491.94,439.09-98.88,1.12,245.75,237.96-53.58Z"/>
  <g>
    <path class="st0" d="M3081.26,2465.16c51.01-5.9,113.26-17.02,190.3-33.99,67.36-14.83,149.12-34.79,257.3-62.81,22.65-4.52,43.28-11.7,61.3-21.35,17.05-9.13,32.3-20.75,45.31-34.53,12.21-12.93,22.85-28.19,31.62-45.34,8.13-15.91,14.94-34,20.23-53.78,20.4-76.27,16.56-169.78,13.16-252.28-1.86-45.18-3.61-87.86-1.35-123.83v-.17s-238.13,53.62-238.13,53.62l-.1.02,1,220.64-438.84,98.82-2.24-491.68,438.85-98.82,1.12,245.59v.16s238.12-53.62,238.12-53.62l.1-.02v-.1c.19-8.41.4-17.08.61-25.46,1.69-68.19,3.44-138.71-5.45-202.5-4.82-34.55-12.24-63.56-22.69-88.71-11.67-28.07-27.4-51.33-46.77-69.13-10.32-9.48-21.93-17.68-34.53-24.37-13.12-6.97-27.71-12.51-43.37-16.48-33.04-8.38-72.46-10.14-117.18-5.24l-474.4,106.82c-24.73,5.57-48.08,15.24-69.4,28.75-20.76,13.15-39.07,29.59-54.41,48.87-15.35,19.27-27.27,40.8-35.43,63.98-8.39,23.8-12.58,48.72-12.47,74.08,1.57,99.06.94,187.4.38,265.34-.91,128.07-1.64,229.22,7.92,305.9,10.14,81.38,31.62,130.89,69.62,160.52,31.46,24.53,75.45,36.36,138.14,36.35,24.29,0,51.39-1.78,81.65-5.28Z"/>
    <path class="st0" d="M3546.77,1385.31c15.64,3.97,30.21,9.5,43.32,16.46,12.58,6.68,24.18,14.86,34.48,24.33,19.34,17.78,35.05,41,46.71,69.04,10.44,25.12,17.86,54.12,22.67,88.64,8.89,63.77,7.14,134.27,5.45,202.46-.21,8.35-.42,16.98-.61,25.36l-237.72,53.53-1.12-245.59v-.16s-439.25,98.91-439.25,98.91l-.1.02,2.24,492.04v.16s439.25-98.91,439.25-98.91l.1-.02-1-220.64,237.71-53.53c-2.25,35.95-.5,78.57,1.36,123.69,3.39,82.48,7.24,175.97-13.16,252.2-5.29,19.76-12.09,37.84-20.21,53.73-8.76,17.13-19.38,32.37-31.58,45.28-13,13.76-28.22,25.37-45.25,34.48-18,9.64-38.6,16.81-61.24,21.33-108.19,28.02-189.95,47.98-257.3,62.81-77.03,16.97-139.27,28.08-190.28,33.98-108.29,12.53-176.02,2.96-219.61-31.03-37.95-29.59-59.4-79.05-69.53-160.36-9.56-76.66-8.83-177.81-7.92-305.87.56-77.94,1.19-166.28-.38-265.34-.11-25.32,4.08-50.22,12.45-73.99,8.16-23.15,20.06-44.65,35.39-63.91,15.33-19.25,33.61-35.68,54.35-48.81,21.29-13.49,44.62-23.15,69.32-28.72l474.39-106.82c16.45-1.8,32.18-2.7,47.14-2.7,25.68,0,49.08,2.65,69.94,7.94Z"/>
  </g>
  <line class="st0" x1="4373.47" y1="1685.37" x2="4105.48" y2="1745.71"/>
  <polygon class="st0" points="4373.49 1685.49 4373.44 1685.24 4105.45 1745.59 4105.51 1745.84 4373.49 1685.49"/>
  <polygon class="st2" points="4067.45 1692.96 4089.73 1723.57 4357.76 1663.29 4357.75 1663.29 4064.64 1251.63 4064.64 1251.63 3808.61 1309.28 3808.62 1309.28 3813.39 2287.31 3813.39 2287.46 4069.87 2229.46 4067.43 1692.89 4067.45 1692.96"/>
  <path class="st0" d="M4894.22,2040.18l947.88-213.45c.11-.02.19-.13.19-.25l-.61-134.9c0-.07-.04-.14-.1-.19-.05-.05-.13-.06-.2-.05l-947.88,213.45c-.12.03-.2.13-.2.25l.61,134.89c0,.08.04.15.1.2.04.04.1.06.16.05h.05Z"/>
  <g>
    <path class="st0" d="M4894.18,2040.3h0s.02,0,.06,0l947.88-213.45c.17-.04.3-.2.29-.37l-.61-134.91c0-.11-.06-.21-.14-.27-.08-.07-.2-.1-.31-.08l-947.88,213.45c-.18.04-.31.2-.3.37l.61,134.9c0,.12.06.22.14.28.06.05.15.09.24.09h.01Z"/>
    <path class="st0" d="M5841.51,1691.49s.05.06.05.09l.61,134.91c0,.06-.04.11-.09.12l-947.85,213.45s-.04,0-.06,0c-.03,0-.06,0-.08-.03-.03-.02-.05-.06-.05-.1l-.61-134.9c0-.06.04-.11.1-.12l947.88-213.45s.02,0,.02,0c.03,0,.06,0,.08.03Z"/>
  </g>
  <polygon class="st0" points="4893.8 1905.24 4894.41 2039.62 5841.8 1826.28 5841.19 1691.9 4893.8 1905.24"/>
  <g>
    <polygon class="st0" points="5841.82 1826.4 5841.92 1826.38 5841.31 1691.9 5841.31 1691.74 4893.77 1905.11 4893.68 1905.14 4894.29 2039.62 4894.29 2039.77 5841.82 1826.4"/>
    <polygon class="st0" points="5841.06 1692.05 5841.67 1826.18 4894.53 2039.46 4893.93 1905.34 5841.06 1692.05"/>
  </g>
  <path class="st0" d="M4890.4,1199.12l947.88-213.45c.11-.02.19-.13.19-.24l-.61-134.9c0-.08-.04-.15-.1-.2-.05-.05-.13-.06-.2-.05l-947.88,213.46c-.12.03-.19.13-.2.24l.61,134.9c0,.07.04.15.1.2.04.03.1.06.16.05,0,0,.03,0,.05-.01Z"/>
  <g>
    <path class="st0" d="M4890.36,1199.26h0s.05,0,.08-.02l947.87-213.45c.17-.04.29-.2.29-.36l-.61-134.91c0-.12-.06-.22-.14-.28-.08-.07-.2-.11-.31-.08l-947.88,213.46c-.17.04-.29.18-.3.36l.61,134.91c0,.12.06.22.15.29.03.02.12.08.23.08h.01Z"/>
    <path class="st0" d="M4890.35,1199.01h0s-.06-.01-.08-.03c-.03-.02-.05-.07-.05-.1l-.61-134.9s.03-.11.1-.12l947.88-213.46s.07,0,.1.03c.03.02.05.06.05.1l.61,134.91s-.04.1-.09.11l-947.91,213.46v.12s0-.01,0-.01v-.11Z"/>
  </g>
  <polygon class="st0" points="4889.98 1064.18 4890.59 1198.57 5837.98 985.23 5837.37 850.84 4889.98 1064.18"/>
  <g>
    <polygon class="st0" points="5838 985.35 5838.1 985.33 5837.49 850.84 5837.49 850.68 4889.95 1064.06 4889.86 1064.08 4890.47 1198.57 4890.47 1198.73 5838 985.35"/>
    <polygon class="st0" points="5837.24 851 5837.85 985.13 4890.71 1198.41 4890.11 1064.28 5837.24 851"/>
  </g>
  <path class="st0" d="M4893.44,1869.95l947.88-213.45c.12-.03.2-.13.2-.25l-.61-134.9c0-.07-.04-.15-.1-.2s-.13-.05-.21-.04l-947.88,213.45c-.11.02-.19.13-.19.25l.61,134.89c0,.08.04.15.1.2.04.04.1.06.15.05h.05Z"/>
  <g>
    <path class="st0" d="M4893.4,1870.08h.06s947.9-213.46,947.9-213.46c.18-.05.3-.2.29-.37l-.61-134.91c0-.11-.06-.22-.15-.29-.08-.07-.19-.08-.32-.06l-947.88,213.45c-.17.04-.29.2-.29.37l.61,134.9c0,.12.06.22.14.28.06.05.14.09.23.09h.01Z"/>
    <path class="st0" d="M5840.74,1521.25s.05.07.05.1l.61,134.91c0,.07-.05.11-.1.12l-947.88,213.45h-.03s-.05,0-.07-.03c-.03-.02-.05-.06-.05-.1l-.61-134.9c0-.06.04-.11.09-.12l947.88-213.45s.03,0,.04,0c.04,0,.05.01.07.02Z"/>
  </g>
  <polygon class="st0" points="4893.03 1735 4893.64 1869.39 5841.03 1656.05 5840.42 1521.67 4893.03 1735"/>
  <g>
    <polygon class="st0" points="5841.05 1656.18 5841.15 1656.15 5840.54 1521.67 5840.54 1521.51 4893 1734.88 4892.9 1734.9 4893.51 1869.39 4893.52 1869.55 5841.05 1656.18"/>
    <polygon class="st0" points="5840.29 1521.83 5840.9 1655.95 4893.76 1869.23 4893.15 1735.1 5840.29 1521.83"/>
  </g>
  <path class="st0" d="M4892.67,1699.71l947.88-213.45c.12-.03.19-.13.2-.24l-.61-134.9c0-.07-.04-.15-.1-.2s-.13-.06-.21-.04l-947.88,213.45c-.12.03-.19.13-.2.24l.62,134.9c0,.07.04.15.09.2.05.04.1.06.16.05.02,0,.04,0,.05-.01Z"/>
  <g>
    <path class="st0" d="M4892.63,1699.85h0s.06,0,.09-.02l947.86-213.44c.17-.04.29-.18.3-.36l-.61-134.91c0-.11-.06-.22-.15-.29-.09-.07-.2-.1-.32-.06l-947.88,213.45c-.17.04-.29.18-.3.36l.62,134.89c-.01.12.06.24.14.31.07.05.14.08.23.08h.02Z"/>
    <polygon class="st0" points="4892.62 1699.69 4892.62 1699.69 4892.62 1699.72 4892.62 1699.69 4892.62 1699.69"/>
    <path class="st0" d="M5839.97,1351.03s.05.07.05.1l.61,134.9s-.03.11-.1.12l-947.88,213.45h-.04s0,0,0,0c-.02,0-.04,0-.06-.02-.03-.03-.05-.07-.05-.1l-.62-134.9c0-.05.04-.11.1-.12l947.89-213.45s.02,0,.03,0c.02,0,.04,0,.07.03Z"/>
  </g>
  <polygon class="st0" points="4892.26 1564.77 4892.87 1699.16 5840.25 1485.83 5839.64 1351.43 4892.26 1564.77"/>
  <g>
    <polygon class="st0" points="5840.28 1485.95 5840.38 1485.93 5839.76 1351.43 5839.76 1351.28 4892.23 1564.65 4892.13 1564.67 4892.74 1699.16 4892.75 1699.32 5840.28 1485.95"/>
    <polygon class="st0" points="5839.51 1351.59 5840.13 1485.73 4892.99 1699.01 4892.38 1564.87 5839.51 1351.59"/>
  </g>
  <path class="st0" d="M4891.92,1534.16l947.89-213.45c.11-.02.19-.13.19-.24l-.61-134.9c0-.07-.04-.15-.1-.2-.05-.05-.13-.06-.21-.04l-947.88,213.45c-.11.02-.19.13-.19.24l.61,134.9c0,.07.04.15.1.2.04.04.1.06.15.05.02,0,.04,0,.05-.01Z"/>
  <g>
    <path class="st0" d="M4891.87,1534.3h0s.06,0,.09-.02l947.87-213.44c.17-.04.29-.2.29-.36l-.61-134.91c0-.11-.06-.22-.14-.28-.08-.08-.21-.1-.32-.07l-947.88,213.45c-.17.04-.29.2-.29.36l.61,134.91c0,.11.06.22.14.28.06.05.14.09.23.09h.01Z"/>
    <path class="st0" d="M5839.21,1185.47s.05.07.05.1l.61,134.91s-.04.1-.09.11l-947.89,213.45h-.04s-.04,0-.06-.02c-.03-.02-.05-.07-.05-.1l-.61-134.91s.04-.1.09-.11l947.89-213.45s.02,0,.03,0c.03,0,.05,0,.07.03Z"/>
  </g>
  <polygon class="st0" points="4891.5 1399.22 4892.11 1533.61 5839.5 1320.27 5838.89 1185.88 4891.5 1399.22"/>
  <g>
    <polygon class="st0" points="5839.53 1320.39 5839.63 1320.37 5839.02 1185.88 5839.01 1185.72 4891.48 1399.1 4891.38 1399.12 4891.99 1533.61 4891.99 1533.77 5839.53 1320.39"/>
    <polygon class="st0" points="5838.77 1186.04 5839.38 1320.17 4892.24 1533.45 4891.63 1399.32 5838.77 1186.04"/>
  </g>
  <polygon class="st0" points="5838.39 1020.91 5838.39 1020.61 5838.14 1020.67 5838.39 1020.91"/>
  <polygon class="st0" points="5838.51 1020.91 5838.51 1020.45 5838.11 1020.54 5838.17 1020.79 5838.26 1020.76 5838.26 1020.91 5838.51 1020.91"/>
  <polygon class="st0" points="152.39 3109.51 1090.53 2898.2 1044.02 2774.25 151.79 2975.23 152.39 3109.51"/>
  <polygon class="st0" points="1090.56 2898.32 1090.7 2898.29 1044.14 2774.21 1044.1 2774.11 151.76 2975.11 151.81 2975.35 1043.94 2774.4 1090.37 2898.1 152.36 3109.39 152.42 3109.64 1090.56 2898.32"/>
  <polygon class="st0" points="148.59 2272.33 800.5 2125.49 753.98 2001.55 147.98 2138.06 148.59 2272.33"/>
  <polygon class="st0" points="800.53 2125.61 800.67 2125.58 754.1 2001.51 754.06 2001.41 147.95 2137.93 148.01 2138.18 753.9 2001.7 800.34 2125.39 148.57 2272.21 148.62 2272.45 800.53 2125.61"/>
  <polygon class="st0" points="151.62 2940.07 1031.83 2741.8 985.32 2617.87 151.02 2805.79 151.62 2940.07"/>
  <polygon class="st0" points="1031.86 2741.92 1032 2741.89 985.44 2617.82 985.4 2617.72 150.99 2805.66 151.05 2805.91 985.24 2618.01 1031.66 2741.71 151.6 2939.95 151.65 2940.19 1031.86 2741.92"/>
  <polygon class="st0" points="150.86 2770.62 973.13 2585.41 926.61 2461.47 150.24 2636.35 150.86 2770.62"/>
  <polygon class="st0" points="973.16 2585.53 973.3 2585.5 926.72 2461.42 926.69 2461.32 150.21 2636.23 150.27 2636.47 926.53 2461.61 972.96 2585.32 150.83 2770.5 150.88 2770.74 973.16 2585.53"/>
  <polygon class="st0" points="150.1 2605.83 916.04 2433.31 869.52 2309.37 149.5 2471.56 150.1 2605.83"/>
  <polygon class="st0" points="916.07 2433.43 916.21 2433.4 869.63 2309.32 869.6 2309.22 149.47 2471.43 149.53 2471.68 869.44 2309.51 915.87 2433.22 150.08 2605.71 150.13 2605.95 916.07 2433.43"/>
  <polygon class="st0" points="149.36 2441.63 859.15 2281.75 812.64 2157.81 148.75 2307.35 149.36 2441.63"/>
  <polygon class="st0" points="859.18 2281.87 859.32 2281.84 812.76 2157.76 812.72 2157.66 148.72 2307.23 148.78 2307.47 812.56 2157.95 858.98 2281.65 149.34 2441.5 149.39 2441.75 859.18 2281.87"/>
  <line class="st0" x1="152.39" y1="3109.51" x2="151.79" y2="2975.23"/>
  <polygon class="st0" points="152.52 3109.51 151.91 2975.23 151.66 2975.23 152.27 3109.52 152.52 3109.51"/>
  <line class="st0" x1="148.59" y1="2272.33" x2="147.98" y2="2138.06"/>
  <polygon class="st0" points="148.72 2272.33 148.1 2138.06 147.85 2138.06 148.47 2272.33 148.72 2272.33"/>
  <line class="st0" x1="151.62" y1="2940.07" x2="151.02" y2="2805.79"/>
  <polygon class="st0" points="151.75 2940.07 151.14 2805.78 150.89 2805.79 151.5 2940.07 151.75 2940.07"/>
  <line class="st0" x1="150.86" y1="2770.62" x2="150.24" y2="2636.35"/>
  <polygon class="st0" points="150.98 2770.62 150.37 2636.35 150.12 2636.35 150.73 2770.62 150.98 2770.62"/>
  <line class="st0" x1="149.5" y1="2471.56" x2="150.1" y2="2605.83"/>
  <polygon class="st0" points="150.23 2605.83 149.62 2471.56 149.37 2471.56 149.98 2605.83 150.23 2605.83"/>
  <line class="st0" x1="149.36" y1="2441.63" x2="148.75" y2="2307.35"/>
  <polygon class="st0" points="149.49 2441.62 148.87 2307.35 148.62 2307.35 149.24 2441.63 149.49 2441.62"/>
  <polygon class="st0" points="607.06 3538.69 712.24 3515 711.12 3268.44 793.13 3496.79 888.35 3475.35 968.27 3210.54 969.4 3457.1 1074.58 3433.41 1073.11 3110.1 904.31 3148.11 840.52 3359.4 774.49 3177.35 605.58 3215.39 607.06 3538.69"/>
  <g>
    <polygon class="st0" points="712.26 3515.12 712.36 3515.1 711.25 3269.17 793.02 3496.83 793.05 3496.93 888.38 3475.47 888.45 3475.46 968.15 3211.37 969.27 3457.1 969.27 3457.26 1074.6 3433.54 1074.7 3433.51 1073.24 3110.1 1073.24 3109.94 904.28 3147.99 904.21 3148.01 840.51 3359.01 774.61 3177.31 774.57 3177.2 605.56 3215.26 605.46 3215.29 606.93 3538.69 606.93 3538.84 712.26 3515.12"/>
    <polygon class="st0" points="774.41 3177.49 840.4 3359.44 840.53 3359.8 904.41 3148.22 1072.99 3110.26 1074.45 3433.31 969.52 3456.94 968.39 3210.54 968.15 3210.5 888.25 3475.24 793.21 3496.64 711.24 3268.4 710.99 3268.44 712.11 3514.9 607.18 3538.53 605.71 3215.49 774.41 3177.49"/>
  </g>
  <path class="st0" d="M1546.17,3256.03c155.17-332.66-419.6-259.75-406.55,1.14,4.49,214.24,337.21,126.38,406.55-1.14Z"/>
  <g>
    <path class="st0" d="M1321.72,3384.49c29.84-3.9,61.41-12.4,91.29-24.58,29.69-12.11,57.4-27.72,80.15-45.14,24.13-18.49,42-38.23,53.13-58.68,46.22-99.09,23.75-152.89-3.25-180.57-12.8-13.12-29.47-23.43-49.57-30.64-19.09-6.85-40.82-10.77-64.59-11.65-46.73-1.73-97.99,8.46-144.33,28.68-43.58,19.02-79.96,45.64-105.2,77-13.68,16.99-24.01,35.3-30.72,54.41-7.16,20.4-10.23,41.89-9.13,63.87h0c.73,34.73,10.15,63.19,27.99,84.58,16.14,19.35,38.91,32.71,67.66,39.7,15.21,3.7,31.73,5.55,49.39,5.55,11.89,0,24.3-.84,37.18-2.52Z"/>
    <path class="st0" d="M1428.87,3033.47c23.74.88,45.45,4.79,64.52,11.64,20.06,7.2,36.7,17.49,49.47,30.58,26.94,27.62,49.36,81.32,3.2,180.28-11.1,20.41-28.95,40.13-53.05,58.59-22.73,17.42-50.42,33.01-80.09,45.11-29.86,12.18-61.41,20.67-91.23,24.57-31.97,4.17-61.06,3.15-86.48-3.03-28.7-6.98-51.42-20.31-67.53-39.62-17.81-21.35-27.21-49.76-27.94-84.43h0c-1.1-21.95,1.97-43.41,9.12-63.77,6.7-19.09,17.02-37.37,30.68-54.34,25.22-31.32,61.56-57.92,105.11-76.93,42.94-18.73,90.08-28.85,133.93-28.85,3.45,0,6.88.06,10.29.19Z"/>
  </g>
  <path class="st0" d="M1268.06,3228.69c-5.95,100.87,103.99,87.62,151.43,36.76,15.06-17.38,22.5-44.14,22.34-80.32,6.28-95.03-106.19-83.41-150.57-32.54-15.63,17.8-23.35,43.17-23.2,76.1Z"/>
  <g>
    <path class="st0" d="M1363.22,3299.6c21.62-6.42,42.17-18.83,56.37-34.07,7.51-8.66,13.19-19.82,16.9-33.16,3.71-13.33,5.55-29.23,5.46-47.23,1.14-17.22-1.57-31.76-8.06-43.22-5.87-10.37-14.68-18.04-26.2-22.79-16.94-7-38.69-7.22-61.22-.61-21.9,6.42-42.06,18.81-55.31,33.99-7.79,8.87-13.69,19.78-17.54,32.42-3.85,12.63-5.76,27.35-5.69,43.76-1.09,18.47,1.67,34,8.19,46.17,5.9,11.01,14.77,19.1,26.36,24.07,8.59,3.68,18.5,5.52,29.17,5.52,9.99,0,20.67-1.62,31.56-4.85Z"/>
    <path class="st1" d="M1407.61,3119.36c11.46,4.73,20.24,12.37,26.07,22.69,6.46,11.42,9.16,25.91,8.03,43.09.08,17.99-1.75,33.86-5.46,47.17-3.7,13.3-9.37,24.43-16.85,33.06-14.17,15.2-34.68,27.58-56.26,33.99-22.48,6.67-43.99,6.44-60.56-.66-11.54-4.94-20.36-13-26.24-23.96-6.5-12.12-9.24-27.61-8.16-46.04h0c-.07-16.39,1.84-31.09,5.68-43.7,3.84-12.61,9.73-23.49,17.49-32.33,13.22-15.15,33.34-27.52,55.19-33.92,10.9-3.19,21.62-4.79,31.69-4.79,10.7,0,20.67,1.8,29.37,5.39Z"/>
  </g>
  <polygon class="st0" points="1594.87 3072.52 1725.85 3043.03 1726.96 3286.5 1855.39 3257.59 1854.28 3014.11 1985.27 2984.62 1984.9 2904.78 1594.5 2992.69 1594.87 3072.52"/>
  <g>
    <polygon class="st0" points="1855.41 3257.71 1855.51 3257.68 1854.4 3014.21 1985.3 2984.74 1985.39 2984.72 1985.03 2904.78 1985.03 2904.62 1594.48 2992.57 1594.38 2992.59 1594.74 3072.53 1594.74 3072.68 1725.72 3043.19 1726.83 3286.5 1726.83 3286.66 1855.41 3257.71"/>
    <polygon class="st0" points="1594.99 3072.37 1594.63 2992.79 1984.78 2904.94 1985.14 2984.52 1854.25 3013.99 1854.15 3014.01 1855.26 3257.49 1727.08 3286.34 1725.97 3043.03 1725.97 3042.88 1594.99 3072.37"/>
  </g>
  <path class="st0" d="M2414.3,3060.53c155.17-332.66-419.6-259.74-406.55,1.14,4.49,214.24,337.21,126.38,406.55-1.14Z"/>
  <g>
    <path class="st0" d="M2189.85,3188.99c29.84-3.9,61.41-12.4,91.29-24.58,29.69-12.11,57.4-27.72,80.15-45.14,24.13-18.49,42-38.23,53.13-58.68,46.22-99.09,23.75-152.89-3.25-180.56-12.8-13.12-29.47-23.43-49.57-30.64-19.09-6.85-40.82-10.77-64.59-11.65-46.73-1.72-97.99,8.46-144.33,28.68-43.58,19.02-79.96,45.64-105.2,77-13.68,16.99-24.01,35.3-30.72,54.41-7.16,20.4-10.23,41.89-9.13,63.86h0c.73,34.73,10.15,63.19,27.99,84.58,16.14,19.35,38.91,32.71,67.66,39.7,15.21,3.7,31.73,5.55,49.39,5.55,11.89,0,24.3-.84,37.18-2.52Z"/>
    <path class="st0" d="M2297.01,2837.98c23.74.88,45.45,4.79,64.52,11.64,20.06,7.2,36.7,17.49,49.47,30.58,26.94,27.62,49.36,81.32,3.2,180.28-11.1,20.41-28.95,40.13-53.05,58.59-22.73,17.42-50.42,33.01-80.09,45.11-29.86,12.18-61.41,20.67-91.23,24.57-31.97,4.17-61.06,3.15-86.48-3.03-28.7-6.98-51.42-20.31-67.53-39.62-17.81-21.35-27.21-49.76-27.94-84.43h0c-1.1-21.95,1.97-43.4,9.12-63.77,6.7-19.09,17.02-37.37,30.68-54.34,25.22-31.32,61.56-57.92,105.11-76.92,42.94-18.73,90.08-28.85,133.94-28.85,3.45,0,6.88.06,10.29.19Z"/>
  </g>
  <path class="st0" d="M2136.2,3033.2c-5.95,100.87,103.99,87.62,151.43,36.76,15.06-17.38,22.5-44.14,22.35-80.31,6.26-95.04-106.2-83.42-150.58-32.55-15.62,17.8-23.35,43.17-23.2,76.1Z"/>
  <g>
    <path class="st0" d="M2231.35,3104.1c21.62-6.42,42.17-18.83,56.37-34.07,7.5-8.66,13.19-19.82,16.9-33.16,3.71-13.33,5.55-29.22,5.47-47.22,1.14-17.22-1.58-31.77-8.06-43.23-5.87-10.37-14.69-18.04-26.2-22.8-16.95-7-38.69-7.21-61.22-.61-21.9,6.42-42.05,18.8-55.3,33.99-7.78,8.87-13.69,19.78-17.54,32.42-3.85,12.63-5.77,27.36-5.69,43.76-1.09,18.47,1.67,34.01,8.19,46.17,5.9,11.01,14.77,19.1,26.36,24.07,8.59,3.68,18.5,5.52,29.17,5.52,9.99,0,20.67-1.62,31.56-4.85Z"/>
    <path class="st1" d="M2275.74,2923.87c11.46,4.74,20.24,12.37,26.08,22.69,6.46,11.42,9.16,25.91,8.03,43.1.08,17.99-1.76,33.86-5.46,47.17-3.7,13.3-9.37,24.43-16.85,33.06-14.17,15.2-34.68,27.58-56.26,33.99-22.48,6.67-43.99,6.44-60.56-.66-11.54-4.94-20.36-13-26.24-23.96-6.5-12.12-9.24-27.61-8.16-46.04h0c-.07-16.38,1.84-31.08,5.68-43.7,3.84-12.61,9.73-23.48,17.49-32.33,13.22-15.15,33.33-27.51,55.19-33.92,10.9-3.19,21.62-4.79,31.69-4.79,10.7,0,20.67,1.8,29.37,5.39Z"/>
  </g>
  <path class="st0" d="M2639.03,3081.12l-.6-131.22c13.62-3.58,30.82-6.6,42.85-2.15,19,5.96,77.24,88.03,92.47,103.03l145.12-32.68c-33.7-37.48-74.04-119.93-134.81-112.47,52.71-20.9,98.86-56,100-113.48.32-41.94-29.95-65.14-70.4-66.05-52.72-2.64-246.17,49.95-305.1,60.76l1.47,323.3,129-29.05Z"/>
  <g>
    <path class="st0" d="M2639.06,3081.24l.1-.02-.6-131.22c18.8-4.93,33.15-5.65,42.68-2.12,12.78,4.01,43.95,43.29,66.71,71.97,11.13,14.03,20.75,26.14,25.71,31.03l.05.05,145.19-32.69.21-.05-.14-.16c-7.88-8.76-16.14-20.02-24.9-31.94-14.17-19.29-30.23-41.16-48.3-57.12-20.45-18.06-40.34-25.77-60.78-23.57,29-11.6,52.04-25.96,68.51-42.7,19.84-20.17,30.17-43.9,30.7-70.54.15-20.02-6.75-36.8-19.95-48.51-12.52-11.1-30-17.21-50.56-17.67-1.31-.07-2.7-.1-4.17-.1-39.37,0-136.27,22.91-214.69,41.44-36.41,8.61-67.85,16.04-86.27,19.42l-.1.02,1.47,323.41v.16s129.15-29.08,129.15-29.08Z"/>
    <path class="st0" d="M2594.87,2767.57c78.41-18.54,175.3-41.44,214.63-41.44,1.47,0,2.86.03,4.17.1,20.5.46,37.93,6.55,50.41,17.61,13.15,11.66,20.02,28.37,19.87,48.32-.53,26.57-10.83,50.25-30.63,70.37-16.61,16.88-39.92,31.35-69.3,42.99l.06.24c20.69-2.54,40.82,5.11,61.52,23.4,18.05,15.94,34.1,37.8,48.26,57.08,8.7,11.85,16.93,23.05,24.77,31.8l-144.84,32.62c-4.96-4.91-14.55-16.98-25.64-30.96-22.78-28.71-53.98-68.02-66.82-72.05-9.73-3.6-23.77-2.9-42.92,2.14l-.09.02.6,131.22-128.75,28.99-1.47-323.04c18.44-3.39,49.83-10.81,86.18-19.4Z"/>
  </g>
  <path class="st0" d="M2638.16,2888.81c31.26-8.87,83.37-12.25,108.95-39.1,39.26-72.25-74.45-33.52-109.24-26.62l.29,65.72Z"/>
  <g>
    <path class="st0" d="M2638.19,2888.93c7.88-2.24,17.11-4.13,26.88-6.13,29.52-6.05,62.97-12.9,82.12-33l.02-.03c8.78-16.16,10.46-27.94,4.98-35.01-12.96-16.75-62.47-4.44-95.23,3.71-7.59,1.89-14.15,3.52-19.13,4.51l-.1.02.29,65.82v.16s.16-.04.16-.04Z"/>
    <path class="st1" d="M2657.03,2818.7c32.7-8.13,82.11-20.42,94.97-3.8,5.41,6.99,3.73,18.67-5,34.73-19.1,20.03-52.5,26.88-81.98,32.92-9.71,1.99-18.88,3.87-26.74,6.09l-.29-65.45c4.98-.99,11.5-2.61,19.04-4.49Z"/>
  </g>
  <path class="st0" d="M3292.33,2886.09c40.07-54.35,25.4-121.78-48.13-130.34-24.34-4.15-64.58-4.62-120.76-1.39-27.57.64-49.25,4.2-52.57-13.99,3.72-39.53,102.36-58.57,108.1-8l121.03-32.78c-18.6-131.34-281.1-47.14-329.53,25.3-62.02,98.51,40.22,127.21,138.9,117.64,34.42-1.86,56.38-.55,65.86,3.93,21.72,10.4,16.49,31.05-.51,45.92-32.07,27.23-110.08,38.58-115.45-18.93l-122.17,33.48c16.53,148.41,294.22,67.12,355.23-20.84Z"/>
  <g>
    <path class="st0" d="M3084.16,2987.21c26.73-3.14,55.66-10.12,83.65-20.17,27.28-9.8,53.11-22.29,74.67-36.13,22.29-14.3,39.57-29.78,49.95-44.75,10.61-14.39,17.69-30.21,20.47-45.75,2.75-15.36,1.28-30.2-4.25-42.93-10.14-23.33-33.02-38.2-64.43-41.85-24.23-4.14-64.87-4.61-120.79-1.4-3.59.08-7.07.21-10.44.34-11.28.43-21.03.8-28.38-.91-7.97-1.85-12.31-6.08-13.63-13.3.98-10.35,8.69-20.1,21.71-27.45,12.07-6.81,27.32-10.8,41.82-10.94.26,0,.52,0,.78,0,11.35,0,21.27,2.4,28.72,6.96,8.67,5.3,13.66,13.2,14.82,23.46l.02.14,121.17-32.82.11-.03-.02-.11c-2.53-17.83-9.71-32.5-21.34-43.58-10.67-10.16-25.11-17.37-42.94-21.44-20.55-4.69-45.08-5.19-72.92-1.49-25.21,3.35-52.55,10.19-79.07,19.77-53.16,19.21-96.64,46.79-113.48,71.98-20.39,32.4-24.34,59.18-11.74,79.61,5.14,8.33,13.07,15.54,23.57,21.43,9.8,5.5,21.86,9.86,35.83,12.97,25.98,5.77,57.57,7.09,91.34,3.82,34.24-1.85,56.38-.53,65.8,3.92,8.27,3.96,13.14,9.74,14.1,16.72,1.24,9.05-4.23,19.89-14.63,28.99-10.55,8.96-26,16.18-42.39,19.83-17.61,3.92-34.25,3.25-46.84-1.88-7.32-2.98-13.23-7.42-17.56-13.2-4.74-6.32-7.58-14.26-8.46-23.59v-.15s-122.32,33.52-122.32,33.52l-.1.03v.11c2.34,20.9,9.99,38.17,22.76,51.35,11.7,12.08,27.7,20.75,47.54,25.77,13.48,3.41,28.49,5.12,44.88,5.12,10.15,0,20.84-.66,32-1.97Z"/>
    <path class="st0" d="M3059.15,2873.61c.89,9.31,3.75,17.24,8.49,23.57,4.36,5.81,10.3,10.28,17.66,13.28,12.64,5.15,29.33,5.82,46.99,1.9,16.43-3.66,31.93-10.9,42.5-19.88,10.47-9.16,15.97-20.08,14.72-29.21-.97-7.07-5.89-12.92-14.24-16.91-9.46-4.47-31.64-5.8-65.93-3.95-33.75,3.27-65.31,1.96-91.27-3.81-13.95-3.1-25.99-7.45-35.77-12.94-10.46-5.87-18.36-13.05-23.48-21.35-12.55-20.34-8.6-47.04,11.74-79.34,16.81-25.15,60.25-52.69,113.36-71.88,26.5-9.58,53.83-16.41,79.02-19.76,27.81-3.7,52.32-3.2,72.83,1.48,17.79,4.06,32.19,11.25,42.83,21.38,11.57,11.02,18.72,25.6,21.25,43.32l-120.79,32.71c-1.2-10.27-6.22-18.17-14.92-23.5-7.49-4.58-17.45-7-28.85-7-.26,0-.52,0-.79,0-14.54.14-29.83,4.14-41.94,10.98-13.1,7.4-20.86,17.22-21.84,27.66v.02s0,.02,0,.02c1.34,7.34,5.73,11.64,13.82,13.52,7.38,1.72,17.14,1.34,28.44.92,3.37-.13,6.85-.26,10.44-.34,55.9-3.21,96.53-2.74,120.74,1.39,31.33,3.65,54.14,18.46,64.24,41.71,5.51,12.68,6.97,27.48,4.23,42.78-2.78,15.51-9.84,31.29-20.43,45.65-10.37,14.95-27.62,30.4-49.88,44.68-21.55,13.83-47.36,26.31-74.62,36.1-27.98,10.05-56.88,17.02-83.59,20.16-29.17,3.43-55,2.37-76.79-3.14-19.8-5.01-35.76-13.66-47.43-25.7-12.71-13.12-20.33-30.31-22.67-51.1l121.92-33.41Z"/>
  </g>
  <path class="st0" d="M3378.74,2914.55l129.01-29.06-.55-119.96c58.04-12.05,152.23-31.44,185.72-69.42,43.2-36.87,55.97-122.99,2.44-150.67-55.58-32.76-253.54,37.92-318.08,45.8l1.46,323.31Z"/>
  <g>
    <path class="st0" d="M3507.77,2885.61l.1-.02-.54-119.96.82-.17c29.82-6.19,66.93-13.9,101.71-24.98,18.93-6.03,35.2-12.49,48.36-19.21,15.28-7.8,26.99-16.24,34.78-25.07,12.56-10.71,23.15-26.31,29.84-43.9,6.63-17.45,9.22-36.29,7.29-53.07-1.36-11.82-4.84-22.36-10.35-31.33-5.96-9.7-14.15-17.3-24.35-22.57-17.3-10.2-49.68-11.35-98.98-3.52-42.53,6.76-90.39,18.98-132.61,29.77-36.08,9.22-67.23,17.18-86.57,19.54h-.11s1.46,323.44,1.46,323.44v.16s129.16-29.09,129.16-29.09Z"/>
    <path class="st0" d="M3463.89,2571.82c42.22-10.79,90.06-23.01,132.58-29.76,49.24-7.82,81.56-6.68,98.82,3.49,10.16,5.25,18.32,12.82,24.26,22.48,5.49,8.94,8.96,19.45,10.32,31.23,1.93,16.73-.66,35.54-7.27,52.95-6.67,17.56-17.24,33.12-29.78,43.82-7.78,8.83-19.46,17.25-34.72,25.03-13.15,6.71-29.41,13.17-48.33,19.19-34.77,11.08-71.87,18.78-101.68,24.97l-1.02.21.54,119.96-128.76,29-1.46-323.05c19.36-2.38,50.48-10.33,86.49-19.53Z"/>
  </g>
  <path class="st0" d="M3506.89,2700.02c37.8-9.06,96.38-15.84,98.51-57.95-2.24-45.62-66.79-19.8-98.83-14.16l.32,72.11Z"/>
  <g>
    <path class="st0" d="M3506.92,2700.14c4.72-1.13,9.71-2.21,14.99-3.36,36.42-7.91,81.75-17.76,83.62-54.71-.46-9.41-3.67-16.4-9.53-20.78-15.1-11.27-45.37-3.88-69.69,2.06-7.22,1.76-14.03,3.43-19.76,4.43l-.1.02.32,72.22v.16s.15-.04.15-.04Z"/>
    <path class="st1" d="M3526.37,2623.6c24.27-5.93,54.47-13.3,69.48-2.1,5.8,4.33,8.97,11.25,9.43,20.58-1.86,36.75-47.08,46.57-83.42,54.47-5.22,1.13-10.16,2.21-14.84,3.33l-.32-71.85c5.71-1.01,12.49-2.67,19.67-4.42Z"/>
  </g>
  <path class="st0" d="M4188.28,2661.06c155.17-332.66-419.59-259.75-406.55,1.14,4.5,214.24,337.21,126.37,406.55-1.14Z"/>
  <g>
    <path class="st0" d="M3963.83,2789.52c29.84-3.89,61.41-12.4,91.29-24.58,29.68-12.11,57.4-27.72,80.15-45.14,24.13-18.49,42-38.23,53.13-58.68,46.22-99.09,23.75-152.89-3.24-180.57-12.79-13.12-29.47-23.43-49.56-30.64-19.09-6.85-40.82-10.77-64.59-11.65-46.73-1.74-97.98,8.45-144.33,28.67-43.59,19.02-79.97,45.64-105.21,77-13.68,16.99-24.02,35.3-30.72,54.41-7.16,20.4-10.23,41.89-9.13,63.87.73,34.73,10.15,63.19,28,84.58,16.14,19.35,38.91,32.71,67.66,39.7,15.21,3.7,31.72,5.55,49.39,5.55,11.89,0,24.3-.84,37.18-2.52Z"/>
    <path class="st0" d="M4070.99,2438.5c23.74.88,45.45,4.79,64.51,11.64,20.06,7.2,36.7,17.49,49.47,30.58,26.94,27.62,49.36,81.32,3.2,180.28-11.1,20.41-28.95,40.13-53.06,58.59-22.73,17.41-50.42,33.01-80.09,45.11-29.86,12.18-61.41,20.67-91.23,24.57-31.97,4.17-61.07,3.15-86.48-3.02-28.7-6.98-51.42-20.31-67.53-39.62-17.81-21.35-27.21-49.76-27.94-84.43h0c-1.1-21.95,1.97-43.41,9.12-63.78,6.7-19.09,17.02-37.37,30.68-54.34,25.22-31.33,61.57-57.93,105.12-76.93,42.93-18.73,90.08-28.84,133.92-28.84,3.45,0,6.89.06,10.29.19Z"/>
  </g>
  <path class="st0" d="M3910.17,2633.71c-5.95,100.88,104,87.63,151.44,36.77,15.06-17.38,22.5-44.14,22.34-80.32,6.27-95.04-106.19-83.41-150.57-32.54-15.63,17.8-23.36,43.16-23.21,76.09Z"/>
  <g>
    <path class="st0" d="M4005.33,2704.63c21.62-6.42,42.17-18.83,56.38-34.07,7.5-8.66,13.19-19.82,16.9-33.16,3.71-13.33,5.55-29.23,5.46-47.23,1.14-17.22-1.57-31.76-8.06-43.22-5.87-10.37-14.68-18.04-26.2-22.79-16.94-7-38.69-7.21-61.22-.61-21.9,6.42-42.05,18.81-55.31,34-7.79,8.87-13.69,19.78-17.55,32.42-3.85,12.63-5.77,27.35-5.7,43.75-1.09,18.47,1.67,34.01,8.19,46.17,5.9,11.01,14.77,19.11,26.36,24.07,8.59,3.68,18.5,5.52,29.18,5.52,10,0,20.67-1.62,31.56-4.85Z"/>
    <path class="st1" d="M4049.72,2524.39c11.46,4.73,20.24,12.37,26.07,22.69,6.46,11.42,9.16,25.91,8.03,43.09.08,17.99-1.75,33.86-5.46,47.17-3.7,13.3-9.37,24.43-16.85,33.06-14.17,15.2-34.68,27.59-56.26,33.99-22.48,6.67-43.99,6.44-60.57-.66-11.54-4.94-20.37-13-26.24-23.96-6.5-12.12-9.25-27.61-8.16-46.04h0c-.08-16.39,1.84-31.08,5.68-43.69,3.84-12.6,9.73-23.48,17.5-32.32,13.22-15.15,33.34-27.52,55.19-33.92,10.9-3.2,21.62-4.79,31.69-4.79,10.7,0,20.67,1.8,29.37,5.39Z"/>
  </g>
  <path class="st0" d="M4413.02,2681.63l-.6-131.21c13.62-3.58,30.82-6.6,42.85-2.15,18.99,5.96,77.24,88.02,92.46,103.03l145.12-32.68c-33.7-37.49-74.03-119.93-134.81-112.48,52.71-20.89,98.87-55.99,100.02-113.47.32-41.94-29.96-65.14-70.4-66.06-52.73-2.64-246.17,49.96-305.1,60.76l1.46,323.31,129.01-29.06Z"/>
  <g>
    <path class="st0" d="M4413.05,2681.76l.1-.02-.6-131.21c19.06-5,33.02-5.7,42.69-2.12,12.78,4.01,43.97,43.32,66.75,72.03,11.11,14,20.7,26.09,25.65,30.97l.05.05,145.19-32.69.21-.05-.14-.16c-7.87-8.76-16.14-20.02-24.89-31.93-14.17-19.29-30.23-41.17-48.3-57.12-20.45-18.06-40.35-25.79-60.79-23.57,29-11.59,52.04-25.96,68.51-42.69,19.84-20.17,30.17-43.9,30.71-70.54.15-20.02-6.75-36.8-19.96-48.51-12.52-11.1-30-17.21-50.56-17.68-1.31-.07-2.7-.1-4.17-.1-39.35,0-136.2,22.9-214.58,41.42-36.46,8.62-67.95,16.06-86.38,19.44l-.1.02,1.46,323.42v.16s129.16-29.09,129.16-29.09Z"/>
    <path class="st0" d="M4368.97,2368.06c78.37-18.52,175.2-41.42,214.51-41.42,1.47,0,2.86.03,4.17.1,20.5.46,37.93,6.56,50.4,17.61,13.16,11.66,20.03,28.37,19.87,48.32-.53,26.57-10.83,50.25-30.63,70.37-16.61,16.88-39.93,31.34-69.3,42.98l.06.24c20.7-2.54,40.83,5.12,61.53,23.41,18.05,15.94,34.1,37.8,48.26,57.09,8.7,11.85,16.92,23.05,24.76,31.79l-144.84,32.62c-4.95-4.9-14.52-16.95-25.58-30.9-22.8-28.73-54.02-68.08-66.87-72.11-9.72-3.6-23.76-2.9-42.92,2.14l-.09.02.6,131.21-128.76,29-1.46-323.05c18.46-3.39,49.9-10.82,86.29-19.42Z"/>
  </g>
  <path class="st0" d="M4412.14,2489.33c31.26-8.87,83.37-12.25,108.95-39.1,39.25-72.26-74.45-33.52-109.25-26.63l.3,65.72Z"/>
  <g>
    <path class="st0" d="M4412.18,2489.45c7.88-2.24,17.11-4.13,26.88-6.13,29.52-6.05,62.97-12.9,82.12-33l.02-.03c8.78-16.16,10.45-27.94,4.98-35.02-12.96-16.75-62.44-4.45-95.19,3.69-7.61,1.89-14.18,3.53-19.18,4.51l-.1.02.3,65.83v.16s.16-.04.16-.04Z"/>
    <path class="st1" d="M4431.05,2419.21c32.68-8.12,82.08-20.4,94.93-3.78,5.41,6.99,3.73,18.67-4.99,34.73-19.1,20.03-52.5,26.88-81.98,32.92-9.71,1.99-18.88,3.87-26.74,6.09l-.3-65.46c4.99-.99,11.52-2.62,19.09-4.5Z"/>
  </g>
  <polygon class="st0" points="4698.55 2373.62 4829.53 2344.12 4830.64 2587.6 4959.07 2558.68 4957.97 2315.2 5088.95 2285.71 5088.58 2205.87 4698.18 2293.79 4698.55 2373.62"/>
  <g>
    <polygon class="st0" points="4959.1 2558.8 4959.19 2558.78 4958.09 2315.3 5088.98 2285.83 5089.07 2285.81 5088.71 2205.87 5088.71 2205.72 4698.16 2293.67 4698.06 2293.69 4698.42 2373.63 4698.42 2373.78 4829.4 2344.28 4830.51 2587.6 4830.51 2587.76 4959.1 2558.8"/>
    <polygon class="st0" points="4698.67 2373.47 4698.31 2293.89 5088.46 2206.03 5088.82 2285.61 4957.94 2315.08 4957.84 2315.1 4958.94 2558.58 4830.76 2587.44 4829.65 2344.12 4829.65 2343.97 4698.67 2373.47"/>
  </g>
  <path class="st0" d="M5480.53,2393.35c40.07-54.36,25.4-121.79-48.13-130.35-24.34-4.15-64.59-4.62-120.76-1.38-27.57.63-49.25,4.19-52.57-14,3.72-39.53,102.36-58.57,108.1-8l121.03-32.77c-18.6-131.35-281.1-47.15-329.53,25.29-62.02,98.51,40.21,127.21,138.89,117.64,34.43-1.86,56.39-.55,65.86,3.93,21.73,10.4,16.5,31.05-.5,45.92-32.07,27.23-110.08,38.58-115.45-18.93l-122.18,33.48c16.54,148.41,294.23,67.12,355.24-20.83Z"/>
  <g>
    <path class="st0" d="M5272.36,2494.46c26.73-3.14,55.66-10.11,83.65-20.17,27.29-9.8,53.11-22.29,74.67-36.13,22.29-14.3,39.57-29.77,49.95-44.74,10.61-14.39,17.69-30.21,20.47-45.76,2.75-15.36,1.28-30.2-4.25-42.93-10.14-23.33-33.02-38.2-64.43-41.85-24.25-4.14-64.89-4.61-120.79-1.39-3.59.08-7.08.21-10.45.34-11.28.42-21.02.79-28.36-.92-7.97-1.86-12.3-6.08-13.63-13.3.98-10.35,8.69-20.1,21.71-27.45,12.07-6.82,27.32-10.8,41.82-10.94.26,0,.52,0,.78,0,11.35,0,21.27,2.4,28.71,6.96,8.67,5.3,13.66,13.2,14.82,23.46l.02.14,121.17-32.8.11-.03-.02-.11c-2.53-17.84-9.71-32.5-21.35-43.58-10.67-10.16-25.12-17.37-42.95-21.44-20.55-4.69-45.08-5.19-72.92-1.49-25.21,3.35-52.55,10.19-79.07,19.77-53.16,19.21-96.64,46.79-113.48,71.98-20.4,32.4-24.35,59.18-11.74,79.61,5.14,8.33,13.07,15.54,23.57,21.43,9.8,5.5,21.86,9.86,35.83,12.96,25.98,5.77,57.57,7.1,91.34,3.82,34.25-1.85,56.39-.53,65.8,3.92,8.27,3.96,13.15,9.74,14.11,16.72,1.24,9.05-4.23,19.89-14.63,28.99-10.55,8.96-26,16.18-42.39,19.83-17.61,3.92-34.25,3.25-46.84-1.88-7.32-2.98-13.23-7.42-17.56-13.2-4.74-6.32-7.59-14.26-8.46-23.59v-.15s-122.33,33.52-122.33,33.52l-.1.03v.11c2.34,20.9,10,38.17,22.77,51.35,11.7,12.08,27.7,20.74,47.55,25.77,13.48,3.41,28.49,5.12,44.89,5.12,10.15,0,20.83-.66,32-1.97Z"/>
    <path class="st0" d="M5247.36,2380.86c.89,9.31,3.75,17.24,8.49,23.57,4.36,5.81,10.3,10.28,17.66,13.28,12.64,5.15,29.33,5.82,46.99,1.9,16.43-3.65,31.92-10.9,42.5-19.88,10.47-9.16,15.97-20.08,14.72-29.21-.97-7.07-5.9-12.92-14.25-16.92-9.45-4.47-31.63-5.8-65.93-3.95-33.75,3.27-65.31,1.95-91.27-3.81-13.95-3.1-25.98-7.45-35.76-12.94-10.46-5.87-18.36-13.05-23.48-21.34-12.55-20.34-8.6-47.04,11.74-79.34,16.81-25.15,60.25-52.69,113.35-71.88,26.5-9.58,53.83-16.41,79.02-19.76,27.81-3.7,52.32-3.2,72.83,1.48,17.79,4.06,32.2,11.25,42.83,21.38,11.57,11.02,18.72,25.6,21.25,43.33l-120.79,32.7c-1.2-10.27-6.22-18.17-14.92-23.5-7.49-4.58-17.45-7-28.84-7-.26,0-.52,0-.79,0-14.54.14-29.83,4.14-41.94,10.98-13.1,7.4-20.86,17.22-21.84,27.66v.02s0,.02,0,.02c1.34,7.34,5.73,11.63,13.82,13.52,7.38,1.72,17.13,1.35,28.43.93,3.37-.13,6.86-.26,10.46-.34,55.89-3.22,96.51-2.75,120.74,1.38,31.32,3.65,54.14,18.46,64.24,41.7,5.51,12.68,6.97,27.48,4.23,42.79-2.78,15.51-9.84,31.3-20.43,45.66-10.37,14.95-27.62,30.39-49.88,44.68-21.55,13.83-47.36,26.31-74.62,36.1-27.98,10.05-56.88,17.02-83.6,20.16-29.17,3.42-55.01,2.37-76.8-3.14-19.8-5.01-35.76-13.66-47.43-25.7-12.71-13.12-20.34-30.31-22.67-51.1l121.93-33.41Z"/>
  </g>
  <polygon class="st0" points="2855.59 3982.07 2995.13 3984.41 2995.52 3984.42 2883.7 3900.27 2929.04 3768.28 2929.17 3767.92 2814.59 3848.26 2702.76 3764.12 2743.77 3897.92 2629.5 3978.05 2629.19 3978.27 2769.11 3980.62 2810.01 4114.05 2810.12 4114.42 2855.59 3982.07"/>
  <polygon class="st0" points="2883.4 3900.36 2883.43 3900.27 2928.68 3768.56 2814.58 3848.57 2814.51 3848.52 2703.23 3764.78 2744.06 3898.02 2743.98 3898.07 2629.96 3978.03 2769.3 3980.37 2769.32 3980.45 2810.13 4113.61 2855.41 3981.81 2855.5 3981.81 2994.75 3984.15 2883.4 3900.36"/>
  <g>
    <polygon class="st0" points="4589.95 2896.27 4635.3 2764.28 4635.42 2763.91 4520.84 2844.26 4409.02 2760.11 4450.02 2893.92 4335.76 2974.04 4335.44 2974.26 4475.37 2976.61 4516.26 3110.05 4516.37 3110.42 4561.85 2978.06 4701.39 2980.41 4701.77 2980.41 4589.95 2896.27"/>
    <polygon class="st0" points="4561.67 2977.81 4516.39 3109.61 4475.58 2976.45 4475.55 2976.37 4336.21 2974.03 4450.32 2894.02 4409.48 2760.78 4520.76 2844.51 4520.83 2844.57 4634.94 2764.56 4589.68 2896.27 4589.66 2896.36 4701.01 2980.15 4561.76 2977.81 4561.67 2977.81"/>
    <polygon class="st0" points="4589.66 2896.36 4589.68 2896.27 4634.94 2764.56 4520.83 2844.57 4520.76 2844.51 4409.48 2760.78 4450.32 2894.02 4336.21 2974.03 4475.55 2976.37 4475.58 2976.45 4516.39 3109.61 4561.67 2977.81 4561.76 2977.81 4701.01 2980.15 4589.66 2896.36"/>
    <polygon class="st0" points="4260.21 3292.48 4180.08 3178.22 4179.86 3177.9 4177.51 3317.83 4044.08 3358.72 4043.71 3358.83 4176.06 3404.31 4173.72 3543.85 4173.71 3544.23 4257.86 3432.41 4389.85 3477.76 4390.21 3477.89 4309.87 3363.3 4394.01 3251.48 4260.21 3292.48"/>
    <polygon class="st0" points="4309.56 3363.3 4389.57 3477.4 4257.86 3432.15 4257.77 3432.12 4173.98 3543.47 4176.31 3404.22 4176.32 3404.13 4044.52 3358.85 4177.67 3318.04 4177.76 3318.01 4180.1 3178.68 4260.11 3292.78 4393.35 3251.94 4309.61 3363.22 4309.56 3363.3"/>
    <polygon class="st0" points="4260.11 3292.78 4180.1 3178.68 4177.76 3318.01 4177.67 3318.04 4044.52 3358.85 4176.32 3404.13 4176.31 3404.22 4173.98 3543.47 4257.77 3432.12 4257.86 3432.15 4389.57 3477.4 4309.56 3363.3 4309.61 3363.22 4393.35 3251.94 4260.11 3292.78"/>
    <polygon class="st0" points="3873.83 3638.23 3832.93 3504.8 3832.82 3504.43 3787.35 3636.78 3647.8 3634.44 3647.42 3634.43 3759.24 3718.58 3713.89 3850.57 3713.77 3850.93 3828.35 3770.59 3940.18 3854.73 3899.17 3720.93 4013.44 3640.8 4013.75 3640.58 3873.83 3638.23"/>
    <polygon class="st0" points="3939.71 3854.07 3828.43 3770.33 3828.36 3770.28 3714.25 3850.29 3759.51 3718.58 3759.54 3718.49 3648.18 3634.7 3787.43 3637.03 3787.52 3637.04 3832.81 3505.24 3873.61 3638.39 3873.64 3638.48 4012.98 3640.82 3898.88 3720.83 3939.71 3854.07"/>
    <polygon class="st0" points="3873.64 3638.48 3873.61 3638.39 3832.81 3505.24 3787.52 3637.04 3787.43 3637.03 3648.18 3634.7 3759.54 3718.49 3759.51 3718.58 3714.25 3850.29 3828.36 3770.28 3828.43 3770.33 3939.71 3854.07 3898.88 3720.83 4012.98 3640.82 3873.64 3638.48"/>
    <polygon class="st0" points="3399.51 3847.66 3401.85 3708.12 3401.86 3707.73 3317.71 3819.56 3185.72 3774.21 3185.36 3774.08 3265.71 3888.67 3181.56 4000.49 3315.36 3959.48 3395.49 4073.75 3395.71 4074.07 3398.06 3934.14 3531.5 3893.25 3531.86 3893.13 3399.51 3847.66"/>
    <polygon class="st0" points="3397.81 3933.95 3395.47 4073.29 3315.46 3959.19 3182.22 4000.02 3265.96 3888.74 3266.02 3888.67 3186.01 3774.57 3317.72 3819.82 3317.8 3819.85 3401.6 3708.5 3399.26 3847.75 3399.26 3847.84 3531.05 3893.12 3397.9 3933.93 3397.81 3933.95"/>
    <polygon class="st0" points="3399.26 3847.84 3399.26 3847.75 3401.6 3708.5 3317.8 3819.85 3317.72 3819.82 3186.01 3774.57 3266.02 3888.67 3265.96 3888.74 3182.22 4000.02 3315.46 3959.19 3395.47 4073.29 3397.81 3933.95 3397.9 3933.93 3531.05 3893.12 3399.26 3847.84"/>
  </g>
  <g>
    <polygon class="st0" points="4162.35 963.27 4207.82 830.91 4093.24 911.26 3981.72 827.34 3981.42 827.11 4022.42 960.92 3907.84 1041.26 4047.77 1043.61 4088.66 1177.05 4088.77 1177.42 4134.25 1045.06 4273.79 1047.41 4274.17 1047.41 4162.35 963.27"/>
    <polygon class="st0" points="4134.07 1044.81 4088.79 1176.61 4047.98 1043.45 4047.95 1043.37 3908.61 1041.03 4022.64 961.07 4022.72 961.02 3981.88 827.78 4093.16 911.51 4093.24 911.57 4207.34 831.56 4162.09 963.27 4162.06 963.36 4273.41 1047.15 4134.16 1044.81 4134.07 1044.81"/>
    <polygon class="st0" points="4162.06 963.36 4162.09 963.27 4207.34 831.56 4093.24 911.57 4093.16 911.51 3981.88 827.78 4022.72 961.02 4022.64 961.07 3908.61 1041.03 4047.95 1043.37 4047.98 1043.45 4088.79 1176.61 4134.07 1044.81 4134.16 1044.81 4273.41 1047.15 4162.06 963.36"/>
    <polygon class="st0" points="3708 659.28 3710.34 519.74 3710.35 519.35 3626.2 631.18 3494.22 585.83 3493.85 585.7 3574.2 700.29 3490.05 812.11 3623.86 771.1 3703.98 885.37 3704.2 885.69 3706.55 745.76 3840.35 704.75 3708 659.28"/>
    <polygon class="st0" points="3706.3 745.57 3703.97 884.91 3624.01 770.89 3623.96 770.81 3490.71 811.64 3574.45 700.36 3574.51 700.29 3494.5 586.19 3626.21 631.44 3626.29 631.47 3710.09 520.12 3707.75 659.37 3707.75 659.46 3839.55 704.74 3706.39 745.55 3706.3 745.57"/>
    <polygon class="st0" points="3707.75 659.46 3707.75 659.37 3710.09 520.12 3626.29 631.47 3626.21 631.44 3494.5 586.19 3574.51 700.29 3574.45 700.36 3490.71 811.64 3623.96 770.81 3624.01 770.89 3703.97 884.91 3706.3 745.57 3706.39 745.55 3839.55 704.74 3707.75 659.46"/>
    <polygon class="st0" points="3181.96 510.57 3141.06 377.14 3140.95 376.77 3095.48 509.12 2955.93 506.78 2955.55 506.77 3067.37 590.92 3021.9 723.27 3136.48 642.93 3248 726.84 3248.3 727.07 3207.3 593.27 3321.88 512.92 3181.96 510.57"/>
    <polygon class="st0" points="3207.01 593.17 3247.84 726.41 3136.56 642.67 3136.49 642.62 3022.38 722.63 3067.64 590.92 3067.67 590.83 2956.31 507.04 3095.56 509.37 3095.65 509.38 3140.93 377.58 3181.74 510.73 3181.77 510.82 3321.11 513.16 3207.08 593.12 3207.01 593.17"/>
    <polygon class="st0" points="3181.77 510.82 3181.74 510.73 3140.93 377.58 3095.65 509.38 3095.56 509.37 2956.31 507.04 3067.67 590.83 3067.64 590.92 3022.38 722.63 3136.49 642.62 3136.56 642.67 3247.84 726.41 3207.01 593.17 3207.08 593.12 3321.11 513.16 3181.77 510.82"/>
  </g>
  <g>
    <polygon class="st0" points="2635.7 531.7 2555.58 417.44 2555.35 417.12 2553.01 557.05 2419.57 597.94 2419.2 598.05 2551.55 643.53 2549.21 783.07 2549.21 783.45 2633.35 671.63 2765.71 717.1 2685.36 602.52 2769.27 491.01 2769.51 490.7 2635.7 531.7"/>
    <polygon class="st0" points="2685.05 602.52 2765.06 716.62 2633.35 671.37 2633.26 671.34 2549.47 782.69 2551.81 643.44 2551.81 643.35 2420.01 598.07 2553.17 557.26 2553.25 557.23 2555.59 417.89 2635.55 531.92 2635.6 532 2768.84 491.16 2685.1 602.44 2685.05 602.52"/>
    <polygon class="st0" points="2635.6 532 2635.55 531.92 2555.59 417.89 2553.25 557.23 2553.17 557.26 2420.01 598.07 2551.81 643.35 2551.81 643.44 2549.47 782.69 2633.26 671.34 2633.35 671.37 2765.06 716.62 2685.05 602.52 2685.1 602.44 2768.84 491.16 2635.6 532"/>
    <polygon class="st0" points="2191.82 772.61 2237.3 640.25 2122.71 720.6 2011.2 636.69 2010.89 636.45 2051.9 770.26 1937.63 850.38 1937.31 850.61 2077.24 852.95 2118.13 986.39 2118.25 986.76 2163.72 854.41 2303.26 856.75 2303.65 856.75 2191.82 772.61"/>
    <polygon class="st0" points="2163.54 854.15 2118.26 985.95 2077.45 852.79 2077.43 852.71 1938.09 850.37 2052.11 770.41 2052.19 770.36 2011.35 637.12 2122.64 720.86 2122.71 720.91 2236.81 640.9 2191.56 772.61 2191.53 772.7 2302.88 856.49 2163.63 854.15 2163.54 854.15"/>
    <polygon class="st0" points="2191.53 772.7 2191.56 772.61 2236.81 640.9 2122.71 720.91 2122.64 720.86 2011.35 637.12 2052.19 770.36 2052.11 770.41 1938.09 850.37 2077.43 852.71 2077.45 852.79 2118.26 985.95 2163.54 854.15 2163.63 854.15 2302.88 856.49 2191.53 772.7"/>
    <polygon class="st0" points="1775 1086.88 1777.34 947.34 1777.35 946.95 1693.2 1058.78 1560.85 1013.3 1641.2 1127.89 1557.28 1239.4 1557.05 1239.71 1690.86 1198.7 1770.98 1312.97 1771.2 1313.29 1773.55 1173.36 1906.99 1132.47 1907.36 1132.35 1775 1086.88"/>
    <polygon class="st0" points="1773.3 1173.17 1770.97 1312.51 1691.01 1198.48 1690.96 1198.41 1557.71 1239.24 1641.45 1127.96 1641.51 1127.89 1561.5 1013.79 1693.21 1059.04 1693.29 1059.07 1777.09 947.72 1774.75 1086.97 1774.75 1087.06 1906.55 1132.34 1773.39 1173.15 1773.3 1173.17"/>
    <polygon class="st0" points="1774.75 1087.06 1774.75 1086.97 1777.09 947.72 1693.29 1059.07 1693.21 1059.04 1561.5 1013.79 1641.51 1127.89 1641.45 1127.96 1557.71 1239.24 1690.96 1198.41 1691.01 1198.48 1770.97 1312.51 1773.3 1173.17 1773.39 1173.15 1906.55 1132.34 1774.75 1087.06"/>
    <polygon class="st0" points="1475.7 1514.58 1434.81 1381.14 1434.69 1380.77 1389.22 1513.12 1249.68 1510.78 1249.29 1510.78 1361.11 1594.92 1315.64 1727.28 1430.23 1646.93 1541.74 1730.84 1542.05 1731.07 1501.04 1597.27 1615.31 1517.14 1615.63 1516.92 1475.7 1514.58"/>
    <polygon class="st0" points="1500.75 1597.17 1541.58 1730.41 1430.3 1646.67 1430.23 1646.62 1316.13 1726.63 1361.38 1594.92 1361.41 1594.83 1250.06 1511.04 1389.31 1513.38 1389.4 1513.38 1434.68 1381.58 1475.49 1514.74 1475.51 1514.82 1614.85 1517.16 1500.82 1597.12 1500.75 1597.17"/>
    <polygon class="st0" points="1475.51 1514.82 1475.49 1514.74 1434.68 1381.58 1389.4 1513.38 1389.31 1513.38 1250.06 1511.04 1361.41 1594.83 1361.38 1594.92 1316.13 1726.63 1430.23 1646.62 1430.3 1646.67 1541.58 1730.41 1500.75 1597.17 1500.82 1597.12 1614.85 1517.16 1475.51 1514.82"/>
  </g>
  <polygon class="st0" points="1928.64 3530.27 2042.91 3450.15 2043.23 3449.93 1903.3 3447.58 1862.41 3314.14 1862.29 3313.77 1816.82 3446.13 1677.28 3443.78 1676.89 3443.78 1788.72 3527.92 1743.37 3659.91 1743.24 3660.28 1857.83 3579.93 1969.65 3664.08 1928.64 3530.27"/>
  <polygon class="st0" points="1903.11 3447.82 1903.09 3447.73 1862.28 3314.58 1817 3446.38 1816.91 3446.38 1677.66 3444.04 1789.01 3527.83 1788.98 3527.92 1743.73 3659.63 1857.83 3579.62 1857.9 3579.67 1969.18 3663.41 1928.35 3530.17 1928.42 3530.12 2042.45 3450.16 1903.11 3447.82"/>
  <polygon class="st0" points="2324.86 3860.01 2457.22 3905.49 2376.87 3790.9 2460.78 3679.39 2461.02 3679.08 2327.21 3720.09 2246.86 3605.5 2244.52 3745.43 2111.08 3786.32 2110.71 3786.44 2243.07 3831.91 2240.72 3971.45 2240.72 3971.84 2324.86 3860.01"/>
  <polygon class="st0" points="2327.11 3720.38 2327.06 3720.3 2247.1 3606.28 2244.76 3745.61 2244.67 3745.64 2111.52 3786.45 2243.32 3831.73 2243.31 3831.82 2240.98 3971.07 2324.77 3859.72 2324.86 3859.75 2456.57 3905 2376.56 3790.9 2376.61 3790.82 2460.35 3679.54 2327.11 3720.38"/>
  <path class="st0" d="M5842.21,1181.94v.3c0-.07-.03-.14-.1-.19-.04-.04-.09-.06-.15-.05l.25-.06Z"/>
  <g>
    <polygon class="st0" points="5840.8 1151.72 4893.41 1365.06 4892.8 1230.67 5840.19 1017.33 5840.8 1151.72"/>
    <path class="st0" d="M4893.01,1365.57s.1.06.16.05c0,0,.03,0,.05-.01l947.88-213.45c.11-.02.19-.13.19-.24l-.61-134.9c0-.08-.04-.15-.1-.2-.05-.05-.13-.06-.2-.05l-947.88,213.46c-.12.03-.19.13-.2.24l.61,134.9c0,.07.04.15.1.2Z"/>
  </g>
  <path class="st0" d="M4893.22,1365.61l947.88-213.45c.11-.02.19-.13.19-.24l-.61-134.9c0-.08-.04-.15-.1-.2-.05-.05-.13-.06-.2-.05l-947.88,213.46c-.12.03-.19.13-.2.24l.61,134.9c0,.07.04.15.1.2.04.03.1.06.16.05,0,0,.03,0,.05-.01Z"/>
  <g>
    <path class="st0" d="M4893.18,1365.75h0s.05,0,.08-.02l947.87-213.45c.17-.04.29-.2.29-.36l-.61-134.91c0-.12-.06-.22-.14-.28-.08-.07-.2-.11-.31-.08l-947.88,213.46c-.17.04-.29.18-.3.36l.61,134.91c0,.12.06.22.15.29.03.02.12.08.23.08h.01Z"/>
    <path class="st0" d="M4893.17,1365.5h0s-.06-.01-.08-.03c-.03-.02-.05-.07-.05-.1l-.61-134.9s.03-.11.1-.12l947.88-213.46s.07,0,.1.03c.03.02.05.06.05.1l.61,134.91s-.04.1-.09.11l-947.91,213.46v.12s0-.01,0-.01v-.11Z"/>
  </g>
  <polygon class="st0" points="4892.8 1230.67 4893.41 1365.06 5840.8 1151.72 5840.19 1017.33 4892.8 1230.67"/>
  <g>
    <polygon class="st0" points="5840.82 1151.85 5840.92 1151.82 5840.31 1017.33 5840.31 1017.18 4892.77 1230.55 4892.68 1230.57 4893.29 1365.06 4893.29 1365.22 5840.82 1151.85"/>
    <polygon class="st0" points="5840.06 1017.49 5840.67 1151.62 4893.53 1364.91 4892.93 1230.77 5840.06 1017.49"/>
  </g>
  <polygon class="st0" points="5842.21 1182.24 5842.21 1181.94 5841.96 1182 5842.21 1182.24"/>
  <polygon class="st0" points="5842.34 1182.24 5842.33 1181.78 5841.93 1181.88 5841.99 1182.12 5842.08 1182.1 5842.09 1182.24 5842.34 1182.24"/>
</svg>