<?xml version="1.0" encoding="UTF-8" standalone="no"?>
<!-- Created with Inkscape (http://www.inkscape.org/) -->

<svg
   width="683.83209mm"
   height="353.46381mm"
   viewBox="0 0 683.83209 353.46381"
   version="1.1"
   id="svg1"
   xml:space="preserve"
   inkscape:version="1.4.2 (f4327f4, 2025-05-13)"
   sodipodi:docname="logo.svg"
   xmlns:inkscape="http://www.inkscape.org/namespaces/inkscape"
   xmlns:sodipodi="http://sodipodi.sourceforge.net/DTD/sodipodi-0.dtd"
   xmlns="http://www.w3.org/2000/svg"
   xmlns:svg="http://www.w3.org/2000/svg"><sodipodi:namedview
     id="namedview1"
     pagecolor="#ffffff"
     bordercolor="#000000"
     borderopacity="0.25"
     inkscape:showpageshadow="2"
     inkscape:pageopacity="0.0"
     inkscape:pagecheckerboard="0"
     inkscape:deskcolor="#d1d1d1"
     inkscape:document-units="mm"
     inkscape:zoom="0.21959526"
     inkscape:cx="1589.2875"
     inkscape:cy="617.04429"
     inkscape:window-width="1280"
     inkscape:window-height="737"
     inkscape:window-x="-8"
     inkscape:window-y="-8"
     inkscape:window-maximized="1"
     inkscape:current-layer="g19" /><defs
     id="defs1" /><g
     inkscape:label="Layer 1"
     inkscape:groupmode="layer"
     id="layer1"
     transform="translate(522.55206,464.7211)"><g
       id="g20"
       inkscape:label="group-veon"><path
         style="fill:#000000"
         d="m -443.75143,-189.70349 c -2.31374,-3.19611 -4.27914,-6.69042 -14.62127,-25.99531 -8.87279,-16.56218 -15.82128,-29.30627 -35.70421,-65.48437 -17.02126,-30.97112 -21.04103,-38.39797 -21.04103,-38.875 0,-0.6165 37.237,-9.14688 39.92815,-9.14688 0.45674,0 1.16503,1.22698 4.13259,7.15897 11.35435,22.69668 36.97886,75.36423 37.53754,77.15308 0.0982,0.31428 0.34621,0.71063 0.55124,0.88079 0.48635,0.40363 1.54042,-1.66751 4.27293,-8.39581 1.10849,-2.72946 2.45671,-5.91853 2.99605,-7.08682 l 0.98062,-2.12416 3.54992,-1.11341 c 8.26557,-2.59245 29.02127,-8.08321 34.70461,-9.18083 1.09658,-0.21178 1.78593,-0.24562 1.78593,-0.0877 0,0.35581 -2.89994,7.79182 -14.99215,38.44273 -11.27206,28.57204 -12.92779,32.61272 -14.84903,36.23796 l -1.2567,2.3713 -1.9797,0.62503 c -2.42292,0.76496 -14.96673,3.98071 -19.8013,5.07629 -4.87776,1.10537 -5.07443,1.09089 -6.19419,-0.4559 z m 100.97491,-24.36699 c -0.37291,-1.98779 0.41027,-64.96068 0.8417,-67.67831 0.12876,-0.81103 0.20034,-0.84933 3.10194,-1.65958 7.55677,-2.11016 26.27604,-6.55006 28.99729,-6.87767 1.68083,-0.20235 1.75629,-0.24566 3.3395,-1.91677 2.76944,-2.92318 6.20792,-8.65783 7.40717,-12.3536 0.60592,-1.86726 0.37362,-2.114 -1.58564,-1.68421 -0.79959,0.1754 -2.11409,0.46369 -2.92111,0.64065 -1.05518,0.23137 -1.59396,0.24198 -1.91823,0.0378 -0.248,-0.15618 -0.95033,-1.22086 -1.56073,-2.36596 -0.65779,-1.234 -1.16144,-1.92292 -1.23656,-1.69143 -0.0697,0.21481 -0.31325,1.46214 -0.54123,2.77182 -0.51461,2.95635 -1.01985,3.50078 -4.17653,4.50047 -2.5393,0.80416 -27.56893,7.00891 -28.27361,7.00891 -0.31026,0 -0.54622,-0.29376 -0.69071,-0.8599 -0.12071,-0.47294 -0.17749,-10.49962 -0.12619,-22.28152 l 0.0933,-21.42162 2.85974,-5.71495 c 3.36587,-6.72643 5.7015,-10.33533 8.86107,-13.69173 4.41935,-4.69466 8.78016,-7.39264 14.81555,-9.16621 1.74625,-0.51316 11.27125,-2.89197 21.16667,-5.28625 9.89542,-2.39428 26.56417,-6.43853 37.04167,-8.98722 35.28699,-8.58367 44.11015,-10.61338 44.27431,-10.18501 0.13639,0.35588 -1.62392,3.45401 -8.02182,14.11837 -5.4548,9.09233 -10.22659,16.77963 -11.22442,18.08239 -0.30897,0.40338 -1.62519,0.87655 -4.91974,1.76861 -5.47852,1.48339 -38.93927,9.97473 -57.41458,14.5701 -7.42157,1.84597 -13.5218,3.37757 -13.55609,3.40355 -0.15176,0.11501 -0.86148,20.86027 -0.86253,25.21233 -9.8e-4,4.03979 0.0614,4.82864 0.38204,4.82864 0.21077,0 1.3121,-0.29111 2.4474,-0.64691 3.05175,-0.9564 10.98523,-3.05496 31.6781,-8.37943 10.19713,-2.62382 20.55836,-5.30073 23.02494,-5.94868 5.79223,-1.52156 11.12629,-2.75206 11.92985,-2.75206 0.63071,0 0.62809,0.0122 -0.54623,2.54234 -2.12373,4.57569 -9.49994,18.21182 -13.38304,24.74071 -1.76984,2.97575 -1.87649,3.0953 -3.34731,3.75227 -3.09562,1.38271 -8.27309,2.78707 -34.19526,9.27523 l -18.12396,4.53632 -0.30312,1.53538 c -0.53796,2.72489 -1.41271,19.65388 -1.4152,27.38818 -0.001,4.24106 0.033,4.57147 0.46155,4.44182 0.83715,-0.25326 50.8156,-12.58807 59.06823,-14.57819 8.74554,-2.10898 20.14733,-4.7492 21.79984,-5.04799 1.00067,-0.18094 1.02528,-0.16728 0.86303,0.47915 -0.49521,1.9731 -9.6718,23.30567 -12.19085,28.33976 -1.23862,2.47526 -1.42447,2.71195 -2.37251,3.02148 -5.13496,1.67652 -84.12234,21.67231 -98.91074,25.03942 -0.34535,0.0786 -0.49992,-0.1302 -0.63693,-0.86048 z m 149.92108,-37.73782 c -1.67349,-0.33495 -3.77616,-0.90715 -4.67259,-1.27155 -5.31486,-2.16054 -10.3411,-7.36072 -12.13592,-12.55589 -1.09368,-3.16571 -1.58433,-8.95953 -1.87416,-22.13113 -0.15328,-6.96581 -0.0247,-11.88561 0.604,-23.10184 l 0.16605,-2.96263 10.87454,-2.68778 c 16.4751,-4.07204 20.38108,-4.97791 20.59642,-4.77672 0.35482,0.33149 0.69974,9.69814 0.89027,24.17606 0.16884,12.82997 0.22853,14.21383 0.60836,14.10294 0.23163,-0.0676 6.85053,-1.68315 14.70865,-3.59006 28.2902,-6.86509 51.06792,-12.49351 51.2395,-12.66138 0.0962,-0.0941 0.26126,-8.952 0.3668,-19.68416 0.10554,-10.73217 0.24283,-19.51302 0.30509,-19.51302 0.0623,0 5.25501,-1.29995 11.539445,-2.88878 13.124592,-3.31815 19.36488,-4.78414 20.364629,-4.78414 1.328158,0 1.384495,0.41912 1.333653,9.92187 -0.05807,10.85323 -0.539804,30.45123 -0.902867,36.73045 -0.300114,5.19051 -0.803471,7.68179 -2.048519,10.13878 -1.458317,2.87786 -4.126589,6.27995 -8.198688,10.45346 l -4.053039,4.15397 -10.234464,2.52561 c -5.62895,1.38908 -15.05649,3.71172 -20.95008,5.16142 -5.8936,1.4497 -19.2286,4.73417 -29.63334,7.29881 -17.19851,4.23923 -31.74113,7.73136 -34.13124,8.19596 -0.50933,0.099 -1.10464,0.22023 -1.32292,0.26938 -0.21828,0.0492 -1.76609,-0.18468 -3.43958,-0.51963 z m -226.21875,-24.63354 c 0,-0.22992 4.15406,-10.43952 9.23124,-22.68802 5.07718,-12.24849 11.64026,-28.10404 14.58462,-35.23456 6.70194,-16.23048 6.73413,-16.29569 8.49561,-17.21235 0.38157,-0.19857 5.73938,-1.61175 11.90625,-3.14041 9.31677,-2.30946 14.12289,-3.44675 25.83072,-6.11241 0.34427,-0.0784 0.59531,-0.0103 0.59531,0.16143 0,0.48387 -2.54186,6.78821 -7.61847,18.8954 -2.62375,6.2574 -7.29147,17.50881 -10.37271,25.00313 -10.88622,26.478 -12.32536,29.60034 -14.21345,30.83747 -0.46756,0.30636 -37.57121,9.90836 -38.28746,9.90836 -0.0834,0 -0.15166,-0.18812 -0.15166,-0.41804 z m 361.828063,-6.79185 c -0.433517,-1.4053 -0.573096,-14.5681 -0.429034,-40.45944 0.08475,-15.23131 0.229789,-27.76888 0.322311,-27.86128 0.187581,-0.18732 1.038441,-0.41693 17.613653,-4.7532 6.433052,-1.68297 11.880161,-3.05994 12.104687,-3.05994 0.365853,0 0.408229,3.6237 0.408229,34.90939 0,19.75481 -0.100851,34.97171 -0.232314,35.05296 -0.599656,0.37061 -28.109759,6.76682 -29.104087,6.76682 -0.287506,0 -0.577803,-0.25286 -0.683445,-0.59531 z m 94.484421,-23.09665 c -1.715911,-1.31019 -5.673102,-5.71787 -16.013727,-17.83672 -12.2369225,-14.34125 -37.497468,-44.35045 -43.484317,-51.6588 l -4.921028,-6.00726 -0.147626,2.1708 c -0.08119,1.19395 -0.22044,3.4805 -0.309436,5.08123 -0.089,1.60073 -0.210528,2.95916 -0.270074,3.01873 -0.158584,0.15866 -23.869777,5.98928 -26.604027,6.54197 -1.279699,0.25868 -2.412536,0.38451 -2.517416,0.27963 -0.557407,-0.55741 -0.677715,-5.51419 -0.801015,-33.00237 l -0.134752,-30.04121 13.715776,-3.27231 c 7.543676,-1.79977 13.904274,-3.32156 14.134661,-3.38175 0.42552,-0.11118 17.088426,18.81204 35.8165335,40.67502 4.7992165,5.60255 11.5892975,13.46068 15.0890685,17.4625 3.499771,4.00182 7.741219,8.88338 9.425441,10.84792 3.378546,3.94084 3.819934,4.37819 4.047315,4.01028 0.242256,-0.39198 0.682247,-7.26464 0.684807,-10.69669 0.0022,-2.97512 0.02897,-3.1262 0.597635,-3.37539 0.889221,-0.38965 17.411097,-4.38675 21.860802,-5.28873 2.12846,-0.43145 4.305299,-0.78549 4.837422,-0.78676 l 0.967495,-0.002 0.193484,2.57969 c 0.232741,3.10311 -0.114649,67.59384 -0.365424,67.83835 -0.250518,0.24425 -23.180766,5.78196 -23.941641,5.78196 -0.347474,0 -1.184455,-0.422 -1.859957,-0.93779 z M -211.0116,-331.6526 c 0.0906,-2.94671 0.29183,-13.75156 0.44725,-24.01078 l 0.28259,-18.65313 1.30062,-2.72529 c 3.86868,-8.10636 10.5678,-15.48122 17.04345,-18.76262 5.26627,-2.66857 13.57019,-5.22843 30.69995,-9.46391 22.74664,-5.62429 62.962079,-15.28339 64.720665,-15.54485 1.921109,-0.28563 2.106644,-0.26587 4.005629,0.42673 3.388511,1.23586 7.907646,4.57484 10.7869,7.96994 1.646523,1.94152 3.060924,4.75681 3.456092,6.87917 0.195496,1.04997 0.339139,9.08499 0.424221,23.72982 l 0.128641,22.14232 -2.60274,0.8165 c -2.588902,0.81215 -25.318688,6.54854 -28.734198,7.25174 -0.98438,0.20267 -1.8437,0.28127 -1.90959,0.17466 -0.3892,-0.62975 -0.70155,-7.88725 -0.91725,-21.31264 -0.13487,-8.39458 -0.28285,-15.30049 -0.32883,-15.34647 -0.046,-0.046 -3.53597,0.74203 -7.75553,1.75115 -4.21956,1.00912 -17.43505,4.15655 -29.36776,6.99428 -11.9327,2.83774 -23.00552,5.54701 -24.60625,6.02061 l -2.91041,0.86109 -0.18071,1.45014 c -0.25807,2.07104 -0.72151,14.29803 -0.99598,26.27737 -0.12949,5.65134 -0.29385,10.33358 -0.36525,10.40497 -0.29217,0.29217 -28.75812,7.31569 -31.89399,7.86934 l -0.89219,0.15751 z m 245.25292,-57.01755 c -0.11236,-0.54571 -0.207052,-14.50292 -0.210426,-31.01604 l -0.0061,-30.02386 12.633654,-3.10204 c 6.94851,-1.70613 13.336183,-3.18153 14.194829,-3.27868 2.773396,-0.31377 2.540266,-2.83968 2.540266,27.52308 0,20.31022 -0.08222,27.04778 -0.365499,29.95016 -0.201025,2.05965 -0.43915,3.85922 -0.529167,3.99905 -0.173219,0.26907 -26.957749,6.93995 -27.866782,6.94042 -0.102546,5e-5 -0.278379,-0.44639 -0.39074,-0.99209 z"
         id="path22"
         inkscape:label="veon" /></g><g
       id="g19"
       inkscape:label="group-motorsports"
       style="display:inline;fill:#deaa87"
       transform="matrix(1.1339735,0,0,1,58.725899,0)"><text
         xml:space="preserve"
         style="font-style:normal;font-variant:normal;font-weight:bold;font-stretch:normal;font-size:58.3242px;line-height:0.6;font-family:Calibri;-inkscape-font-specification:'Calibri, Bold';font-variant-ligatures:normal;font-variant-caps:normal;font-variant-numeric:normal;font-variant-east-asian:normal;text-align:start;letter-spacing:12.1796px;word-spacing:1.88642px;writing-mode:lr-tb;direction:ltr;text-anchor:start;fill:#deaa87;fill-opacity:1;stroke-width:0.304101;stroke-dasharray:none"
         x="-415.48709"
         y="-233.91302"
         id="text22"
         transform="matrix(0.93604165,-0.25023974,0.22962385,1.0069413,0,0)"
         inkscape:label="text_motorsports"
         inkscape:transform-center-x="-208.3051"
         inkscape:transform-center-y="-82.58959"><tspan
           sodipodi:role="line"
           id="tspan22"
           style="font-style:normal;font-variant:normal;font-weight:bold;font-stretch:normal;font-size:58.3242px;line-height:0.6;font-family:Calibri;-inkscape-font-specification:'Calibri, Bold';font-variant-ligatures:normal;font-variant-caps:normal;font-variant-numeric:normal;font-variant-east-asian:normal;letter-spacing:12.1796px;word-spacing:1.88642px;fill:#000000;fill-opacity:1;fill-rule:nonzero;stroke-width:0.304101;stroke-dasharray:none"
           x="-415.48709"
           y="-233.91302"
           dx="2.8702796"
           rotate="0 0 0 0 0 0 0 0 0 0 0 0"
           dy="5.9816628">MOTORSPORTS</tspan></text></g><g
       id="g18"
       inkscape:label="group-laterals"><path
         style="fill:#030303;stroke:none"
         d="m 151.07709,-427.69896 c -7.69404,0.62835 -15.79193,3.71935 -23.28334,5.58974 -13.65355,3.40894 -27.47622,6.41818 -41.010411,10.28526 -3.152844,0.90085 -6.370283,1.56266 -9.525,2.45799 -1.221501,0.34665 -2.953243,0.47872 -3.772573,1.57019 -1.041216,1.38703 -0.725343,3.87043 -0.725343,5.49682 0,1.18255 -0.337189,3.37163 0.52613,4.33439 0.875464,0.9763 4.206462,-0.45698 5.294703,-0.72902 5.202072,-1.30054 10.392841,-2.66363 15.610416,-3.90057 12.370438,-2.93267 24.707918,-6.04756 37.041668,-9.131 l 10.05416,-2.51354 c 1.59396,-0.39849 3.70165,-0.58372 4.99931,-1.66485 2.7145,-2.26153 4.09846,-8.45269 4.79028,-11.79541 m -77.787501,54.23958 c 14.159213,-2.74589 28.083041,-6.9881 42.068751,-10.48453 4.6023,-1.15058 9.16791,-2.44139 13.75833,-3.63657 2.16608,-0.56395 5.18289,-0.89597 7.08742,-2.09218 0.95854,-0.60203 1.29405,-1.85322 1.71812,-2.83672 1.15987,-2.68998 2.70086,-5.76993 2.83613,-8.73125 -5.53125,0.24117 -11.56409,2.77474 -16.93334,4.13431 -10.92769,2.76705 -21.8922,5.39615 -32.808328,8.20312 -4.317436,1.1102 -8.676085,2.13265 -12.964583,3.34973 -1.369748,0.38874 -3.794342,0.50675 -4.867403,1.49339 -0.691818,0.63607 -0.424263,2.08601 -0.424263,2.92779 0,2.55839 -0.06737,5.16838 0.529166,7.67291 m 57.150001,-0.52916 c -7.47558,0.0619 -15.51243,3.07399 -22.75417,4.79312 -10.967093,2.60349 -22.701261,4.63641 -33.321994,8.41705 -2.259229,0.80422 -1.338549,6.29348 -1.33842,8.22108 6.5e-5,0.7251 -0.247466,2.12905 0.424263,2.63459 0.937863,0.70585 3.326219,-0.36374 4.338237,-0.61674 l 11.90625,-2.97737 c 8.90682,-2.22671 17.801304,-4.5124 26.722914,-6.6791 2.69583,-0.65471 8.41732,-0.8992 10.44839,-2.82938 0.75719,-0.71958 0.95169,-2.07914 1.30555,-3.02575 0.95963,-2.56695 1.91642,-5.20757 2.26898,-7.9375 m -8.99584,25.92916 -0.26458,-0.26458 c -10.71142,2.77241 -21.540544,5.15403 -32.279164,7.83869 -4.855001,1.21375 -10.809999,1.87902 -15.306624,4.10288 -0.947487,0.46857 -0.831086,1.42804 -0.832959,2.34593 -0.0039,1.88533 -0.788647,6.26294 0.52613,7.77764 0.781929,0.90087 2.771795,0.0303 3.707203,-0.20354 l 10.583333,-2.68583 21.166671,-5.31862 c 2.2996,-0.5749 6.76211,-0.83374 8.54631,-2.44149 0.81112,-0.73089 1.08191,-2.22635 1.45701,-3.21358 0.99096,-2.60811 1.83342,-5.28449 2.69667,-7.9375 m -643.46665,104.51042 c 9.18906,-2.37844 18.91284,-5.61372 28.31042,-6.87917 -0.99082,-2.37921 -3.2482,-8.16657 -5.83125,-9.09689 -1.4302,-0.51512 -3.61612,0.576 -5.01667,0.92829 -4.15355,1.04478 -8.28001,2.20148 -12.43541,3.24034 -1.29299,0.32325 -4.45962,0.5218 -5.28432,1.63793 -0.50273,0.68038 -0.27193,1.96698 -0.27193,2.76117 0,2.50101 -0.0607,4.95919 0.52916,7.40833 m -0.52916,13.22917 v 10.58333 c 12.89707,-3.63279 26.90865,-5.26392 39.42291,-10.05417 -0.69456,-2.41098 -2.8623,-7.89843 -5.29554,-8.9646 -2.005,-0.87853 -7.14577,1.32679 -9.25654,1.85435 -8.30112,2.07471 -16.55054,4.65622 -24.87083,6.58109 m 0.52916,33.86666 49.74167,-12.7 c -0.50037,-2.16182 -2.29259,-7.69058 -4.52548,-8.57058 -2.42616,-0.95616 -7.30015,1.03538 -9.76202,1.57913 -8.42171,1.86011 -16.76794,4.13932 -25.13542,6.2312 -2.38693,0.59673 -4.75642,1.25525 -7.14375,1.85208 -0.95593,0.23897 -2.29749,0.35129 -2.98248,1.13856 -1.7375,1.99694 -0.88692,8.14207 -0.19252,10.46961 m -0.52916,23.28334 c 8.03797,-1.02119 15.96716,-3.69371 23.8125,-5.65505 5.38582,-1.34646 10.75492,-2.75316 16.13958,-4.10104 4.85764,-1.21598 9.7348,-2.44717 14.55208,-3.81444 1.73979,-0.49376 4.21638,-0.65218 5.7357,-1.6612 0.8059,-0.53519 0.41906,-1.50414 0.1178,-2.23077 -0.6954,-1.67731 -1.97108,-5.47134 -3.76153,-6.19036 -1.16832,-0.46917 -2.75935,-0.0348 -3.94405,0.17109 -3.11308,0.54087 -6.18773,1.35266 -9.26042,2.08114 -10.35071,2.45392 -20.6869,5.08893 -30.95625,7.86686 -2.63703,0.71333 -5.29387,1.3702 -7.9375,2.05848 -1.09818,0.28592 -2.74677,0.47673 -3.58943,1.29232 -1.93848,1.87614 -0.90848,7.70444 -0.90848,10.18297 z"
         id="path20" /></g></g></svg>
